<svg width="342" height="34" viewBox="0 0 342 34" fill="none" xmlns="http://www.w3.org/2000/svg">
<path d="M21.3904 21.462C21.4504 21.498 21.5164 21.534 21.5884 21.57C21.6604 21.606 21.7264 21.642 21.7864 21.678C21.5824 22.218 21.3844 22.746 21.1924 23.262C21.0124 23.766 20.8204 24.27 20.6164 24.774H11.3464V24.198C11.8984 24.198 12.3004 24.108 12.5524 23.928C12.7564 23.748 12.8584 23.478 12.8584 23.118V13.866C12.8584 13.734 12.8404 13.62 12.8044 13.524C12.7444 13.368 12.6724 13.242 12.5884 13.146C12.3484 12.93 11.9344 12.822 11.3464 12.822V12.228H20.2024C20.4064 12.744 20.6044 13.254 20.7964 13.758C21.0004 14.262 21.2044 14.772 21.4084 15.288C21.3484 15.324 21.2884 15.366 21.2284 15.414C21.1684 15.45 21.1084 15.48 21.0484 15.504C20.7964 15 20.5144 14.586 20.2024 14.262C19.8904 13.938 19.6024 13.686 19.3384 13.506C18.7024 13.074 17.9644 12.858 17.1244 12.858H15.2164C14.8324 12.858 14.5204 12.942 14.2804 13.11C14.1004 13.254 14.0104 13.506 14.0104 13.866V17.916H16.7104C17.2864 17.916 17.6824 17.79 17.8984 17.538C18.1744 17.226 18.3124 16.638 18.3124 15.774H18.8524V20.76H18.3124C18.3124 19.836 18.1744 19.236 17.8984 18.96C17.6824 18.708 17.2864 18.582 16.7104 18.582H14.0104V23.136C14.0104 23.508 14.1004 23.772 14.2804 23.928C14.4004 24.024 14.5384 24.084 14.6944 24.108C14.8624 24.144 15.0484 24.162 15.2524 24.162H17.3224C18.2704 24.162 19.0084 23.988 19.5364 23.64C19.8484 23.436 20.1544 23.148 20.4544 22.776C20.7664 22.404 21.0784 21.966 21.3904 21.462ZM31.5026 17.016C31.0226 17.016 30.6926 17.058 30.5126 17.142C30.3326 17.226 30.2006 17.37 30.1166 17.574V17.628L29.7926 18.384C29.3606 19.512 28.9226 20.622 28.4786 21.714C28.0466 22.806 27.6146 23.91 27.1826 25.026H26.7686C26.2646 23.802 25.7606 22.59 25.2566 21.39C24.7646 20.19 24.2666 18.972 23.7626 17.736V17.574C23.6546 17.37 23.5106 17.226 23.3306 17.142C23.1626 17.058 22.8806 17.016 22.4846 17.016V16.44H26.1026V17.016C25.4186 17.016 25.0226 17.082 24.9146 17.214C24.8546 17.274 24.8246 17.346 24.8246 17.43C24.8246 17.478 24.8426 17.538 24.8786 17.61L27.1826 23.226C27.5066 22.398 27.8246 21.576 28.1366 20.76C28.4606 19.944 28.7846 19.122 29.1086 18.294C29.1686 18.174 29.2166 18.06 29.2526 17.952C29.3006 17.832 29.3546 17.712 29.4146 17.592C29.4386 17.496 29.4506 17.442 29.4506 17.43C29.4506 17.382 29.4446 17.352 29.4326 17.34C29.3966 17.244 29.3306 17.166 29.2346 17.106C29.0546 17.034 28.7306 16.998 28.2626 16.998V16.44H31.5026V17.016ZM39.7189 22.614C39.7789 22.662 39.8389 22.71 39.8989 22.758C39.9709 22.806 40.0369 22.854 40.0969 22.902C39.8089 23.334 39.4909 23.694 39.1429 23.982C38.7949 24.27 38.4229 24.51 38.0269 24.702C37.4869 24.966 36.9049 25.098 36.2809 25.098C35.0929 25.098 34.1209 24.72 33.3649 23.964C32.5609 23.16 32.1589 22.074 32.1589 20.706C32.1589 19.386 32.5429 18.324 33.3109 17.52C34.0669 16.692 35.0269 16.278 36.1909 16.278C37.3549 16.278 38.2729 16.614 38.9449 17.286C39.6649 17.97 40.0249 18.96 40.0249 20.256C38.9089 20.292 37.8109 20.334 36.7309 20.382C35.6509 20.418 34.5469 20.454 33.4189 20.49C33.4189 20.538 33.4129 20.586 33.4009 20.634C33.4009 20.67 33.4009 20.712 33.4009 20.76C33.4009 21.264 33.4669 21.72 33.5989 22.128C33.7429 22.536 33.9469 22.902 34.2109 23.226C34.7629 23.946 35.5369 24.306 36.5329 24.306C37.0609 24.306 37.6129 24.168 38.1889 23.892C38.4529 23.736 38.7109 23.556 38.9629 23.352C39.2269 23.136 39.4789 22.89 39.7189 22.614ZM33.4549 19.806C34.3549 19.782 35.2429 19.752 36.1189 19.716C36.9949 19.68 37.8829 19.65 38.7829 19.626C38.7709 18.834 38.5249 18.198 38.0449 17.718C37.5529 17.19 36.9349 16.926 36.1909 16.926C35.4709 16.926 34.8409 17.214 34.3009 17.79C33.7969 18.318 33.5149 18.99 33.4549 19.806ZM49.7127 24.774H46.2027V24.198C46.6227 24.198 46.9167 24.144 47.0847 24.036C47.2887 23.904 47.3907 23.646 47.3907 23.262V18.744C47.3907 17.736 46.9167 17.232 45.9687 17.232C45.4047 17.232 44.9307 17.328 44.5467 17.52C44.3787 17.604 44.1807 17.718 43.9527 17.862C43.7247 17.994 43.4727 18.156 43.1967 18.348V23.262C43.1967 23.622 43.2747 23.862 43.4307 23.982C43.5267 24.042 43.6587 24.09 43.8267 24.126C43.9947 24.174 44.1987 24.198 44.4387 24.198V24.774H40.9287V24.198C41.3847 24.198 41.7147 24.126 41.9187 23.982C42.0387 23.862 42.0987 23.622 42.0987 23.262V18.294C42.0987 17.97 42.0387 17.766 41.9187 17.682C41.7507 17.55 41.4447 17.484 41.0007 17.484C40.9767 17.424 40.9587 17.358 40.9467 17.286C40.9467 17.214 40.9347 17.148 40.9107 17.088C41.2947 16.956 41.6727 16.824 42.0447 16.692C42.4287 16.56 42.8127 16.428 43.1967 16.296V17.574C44.2167 16.734 45.2547 16.314 46.3107 16.314C47.0427 16.314 47.5887 16.524 47.9487 16.944C48.3087 17.376 48.4887 17.988 48.4887 18.78V23.244C48.4887 23.616 48.5607 23.862 48.7047 23.982C48.8007 24.042 48.9327 24.09 49.1007 24.126C49.2687 24.174 49.4727 24.198 49.7127 24.198V24.774ZM55.5153 23.01C55.5753 23.058 55.6293 23.1 55.6773 23.136C55.7373 23.172 55.7973 23.208 55.8573 23.244C55.6413 23.748 55.3473 24.168 54.9753 24.504C54.5553 24.9 54.0993 25.098 53.6073 25.098C52.9593 25.098 52.4673 24.864 52.1313 24.396C52.0353 24.228 51.9573 24.036 51.8973 23.82C51.8373 23.604 51.8073 23.364 51.8073 23.1V17.142H50.4033V16.566C51.0513 16.566 51.5313 16.32 51.8433 15.828C52.1913 15.264 52.3653 14.46 52.3653 13.416H52.9053V16.44H55.2633V17.142H52.9053V23.226C52.9053 23.862 53.2413 24.18 53.9133 24.18C54.4533 24.18 54.9873 23.79 55.5153 23.01ZM63.6832 22.704C63.6832 23.196 63.5452 23.634 63.2692 24.018C63.2092 24.078 63.1492 24.138 63.0892 24.198C63.0412 24.258 62.9872 24.318 62.9272 24.378C62.3872 24.846 61.6552 25.08 60.7312 25.08C60.0952 25.08 59.5432 24.978 59.0752 24.774C59.0152 24.75 58.9552 24.732 58.8952 24.72C58.8472 24.72 58.7932 24.72 58.7332 24.72H58.5532C58.4212 24.78 58.2952 24.828 58.1752 24.864C58.0552 24.912 57.9292 24.96 57.7972 25.008C57.6292 24.552 57.4552 24.108 57.2752 23.676C57.0952 23.232 56.9212 22.782 56.7532 22.326C56.8012 22.29 56.8432 22.254 56.8792 22.218C56.9272 22.182 56.9812 22.152 57.0412 22.128C57.5572 22.848 58.0492 23.376 58.5172 23.712C59.2612 24.192 59.9932 24.432 60.7132 24.432C61.2772 24.432 61.7512 24.258 62.1352 23.91C62.4472 23.598 62.6032 23.22 62.6032 22.776C62.6032 22.488 62.4892 22.23 62.2612 22.002C62.2132 21.966 62.1532 21.924 62.0812 21.876C62.0092 21.828 61.9252 21.774 61.8292 21.714C61.6732 21.618 61.4692 21.522 61.2172 21.426C60.9652 21.318 60.6592 21.204 60.2992 21.084C59.7352 20.892 59.2672 20.718 58.8952 20.562C58.5232 20.394 58.2412 20.232 58.0492 20.076C57.3292 19.632 56.9692 19.044 56.9692 18.312C56.9692 17.64 57.2872 17.106 57.9232 16.71C58.4032 16.41 59.0032 16.26 59.7232 16.26C60.3472 16.26 60.9892 16.38 61.6492 16.62C61.7452 16.596 61.8472 16.554 61.9552 16.494C62.0632 16.422 62.1832 16.338 62.3152 16.242C62.4832 16.674 62.6512 17.112 62.8192 17.556C62.9872 17.988 63.1552 18.426 63.3232 18.87C63.2632 18.894 63.2032 18.924 63.1432 18.96C63.0952 18.996 63.0412 19.026 62.9812 19.05C62.6812 18.474 62.2792 18.006 61.7752 17.646C61.0312 17.154 60.3472 16.908 59.7232 16.908C59.2672 16.908 58.9072 16.986 58.6432 17.142C58.2472 17.358 58.0492 17.73 58.0492 18.258C58.0492 18.594 58.2232 18.882 58.5712 19.122C58.6192 19.146 58.6672 19.17 58.7152 19.194C58.7632 19.218 58.8172 19.242 58.8772 19.266C59.0452 19.362 59.2552 19.464 59.5072 19.572C59.7592 19.68 60.0412 19.782 60.3532 19.878C61.0012 20.082 61.5352 20.286 61.9552 20.49C62.3872 20.682 62.7172 20.862 62.9452 21.03C63.4372 21.426 63.6832 21.984 63.6832 22.704Z" fill="white"/>
<path d="M115.386 24.774H111.102V24.198C111.786 24.198 112.242 24.102 112.47 23.91C112.662 23.73 112.758 23.466 112.758 23.118V13.38C112.002 15.324 111.258 17.244 110.526 19.14C109.806 21.024 109.08 22.938 108.348 24.882H107.79C107.07 22.974 106.368 21.084 105.684 19.212C105 17.328 104.298 15.426 103.578 13.506V23.118C103.578 23.514 103.68 23.796 103.884 23.964C104.124 24.12 104.538 24.198 105.126 24.198V24.774H101.436V24.198C102.024 24.198 102.408 24.132 102.588 24C102.78 23.856 102.876 23.634 102.876 23.334V13.794C102.876 13.446 102.78 13.2 102.588 13.056C102.396 12.9 102.018 12.822 101.454 12.822V12.228H104.442C105.09 14.004 105.738 15.756 106.386 17.484C107.046 19.212 107.7 20.97 108.348 22.758C108.996 20.97 109.644 19.212 110.292 17.484C110.952 15.756 111.606 14.004 112.254 12.228H115.386V12.822C114.69 12.822 114.264 12.9 114.108 13.056C113.976 13.224 113.91 13.452 113.91 13.74V23.118C113.91 23.49 113.988 23.754 114.144 23.91C114.372 24.102 114.786 24.198 115.386 24.198V24.774ZM120.335 24.144L117.293 17.61C117.173 17.382 117.047 17.232 116.915 17.16C116.843 17.124 116.747 17.094 116.627 17.07C116.507 17.046 116.321 17.034 116.069 17.034V16.44H119.507V17.034C119.195 17.034 118.967 17.04 118.823 17.052C118.679 17.064 118.583 17.106 118.535 17.178C118.475 17.262 118.469 17.382 118.517 17.538C118.565 17.682 118.625 17.832 118.697 17.988L120.893 22.686L122.837 18.186C122.969 17.874 123.035 17.652 123.035 17.52C123.035 17.388 123.005 17.286 122.945 17.214C122.885 17.154 122.801 17.112 122.693 17.088C122.585 17.052 122.393 17.034 122.117 17.034V16.44H125.231V17.034C124.739 17.034 124.391 17.1 124.187 17.232C123.935 17.388 123.713 17.7 123.521 18.168L120.443 25.404C120.095 26.196 119.741 26.736 119.381 27.024C119.057 27.276 118.643 27.402 118.139 27.402C117.983 27.402 117.833 27.378 117.689 27.33C117.545 27.294 117.407 27.228 117.275 27.132C116.987 26.916 116.843 26.64 116.843 26.304C116.843 25.716 117.095 25.422 117.599 25.422C118.139 25.422 118.409 25.656 118.409 26.124C118.409 26.304 118.463 26.418 118.571 26.466C118.643 26.502 118.715 26.52 118.787 26.52C118.883 26.52 118.979 26.484 119.075 26.412C119.327 26.22 119.639 25.716 120.011 24.9L120.335 24.144ZM141.715 12.228C141.895 12.744 142.075 13.254 142.255 13.758C142.435 14.262 142.609 14.784 142.777 15.324C142.681 15.348 142.591 15.378 142.507 15.414C142.435 15.45 142.351 15.48 142.255 15.504C142.027 15 141.805 14.592 141.589 14.28C141.385 13.956 141.181 13.698 140.977 13.506C140.713 13.266 140.401 13.104 140.041 13.02C139.681 12.936 139.327 12.894 138.979 12.894C138.283 12.894 137.827 12.948 137.611 13.056C137.371 13.164 137.251 13.38 137.251 13.704V23.262C137.251 23.61 137.383 23.856 137.647 24C137.887 24.132 138.409 24.198 139.213 24.198V24.774H134.137V24.198C134.857 24.198 135.343 24.138 135.595 24.018C135.931 23.862 136.099 23.61 136.099 23.262V13.56C136.099 13.308 136.003 13.134 135.811 13.038C135.631 12.942 135.265 12.894 134.713 12.894C134.293 12.894 133.861 12.93 133.417 13.002C132.985 13.074 132.613 13.242 132.301 13.506C132.169 13.614 132.043 13.746 131.923 13.902C131.803 14.046 131.665 14.238 131.509 14.478C131.413 14.634 131.323 14.79 131.239 14.946C131.155 15.09 131.065 15.246 130.969 15.414C130.897 15.378 130.825 15.348 130.753 15.324C130.693 15.288 130.627 15.252 130.555 15.216C130.735 14.712 130.915 14.214 131.095 13.722C131.275 13.23 131.455 12.732 131.635 12.228H141.715ZM146.201 12.876C146.201 13.164 146.105 13.404 145.913 13.596C145.721 13.788 145.481 13.884 145.193 13.884C144.929 13.884 144.707 13.788 144.527 13.596C144.359 13.404 144.275 13.164 144.275 12.876C144.275 12.588 144.365 12.348 144.545 12.156C144.725 11.964 144.941 11.868 145.193 11.868C145.481 11.868 145.721 11.964 145.913 12.156C146.105 12.348 146.201 12.588 146.201 12.876ZM147.047 24.792H143.681V24.198C144.173 24.198 144.491 24.126 144.635 23.982C144.755 23.874 144.815 23.676 144.815 23.388V18.204C144.815 17.94 144.761 17.76 144.653 17.664C144.521 17.556 144.203 17.502 143.699 17.502L143.627 17.106L145.913 16.242V23.388C145.913 23.724 145.967 23.934 146.075 24.018C146.231 24.138 146.555 24.198 147.047 24.198V24.792ZM155.11 22.614C155.17 22.662 155.23 22.704 155.29 22.74C155.35 22.776 155.41 22.818 155.47 22.866C154.594 24.354 153.418 25.098 151.942 25.098C150.886 25.098 149.986 24.726 149.242 23.982C148.498 23.166 148.126 22.14 148.126 20.904C148.126 19.62 148.534 18.516 149.35 17.592C150.142 16.728 151.132 16.296 152.32 16.296C153.028 16.296 153.646 16.434 154.174 16.71C154.366 16.806 154.54 16.92 154.696 17.052C154.864 17.184 155.002 17.34 155.11 17.52C155.23 17.724 155.29 17.928 155.29 18.132C155.29 18.348 155.23 18.552 155.11 18.744C154.99 18.936 154.81 19.032 154.57 19.032C154.138 19.032 153.85 18.696 153.706 18.024C153.67 17.844 153.598 17.694 153.49 17.574C153.382 17.454 153.25 17.346 153.094 17.25C152.782 17.058 152.398 16.962 151.942 16.962C151.258 16.962 150.652 17.316 150.124 18.024C149.596 18.768 149.332 19.644 149.332 20.652C149.332 21.192 149.398 21.684 149.53 22.128C149.674 22.572 149.884 22.956 150.16 23.28C150.724 23.952 151.426 24.288 152.266 24.288C153.298 24.288 154.246 23.73 155.11 22.614ZM165.49 24.774H161.602V24.198C162.154 24.198 162.514 24.132 162.682 24C162.754 23.964 162.79 23.91 162.79 23.838C162.79 23.742 162.748 23.652 162.664 23.568C162.604 23.508 162.544 23.448 162.484 23.388C162.436 23.328 162.388 23.268 162.34 23.208C161.98 22.728 161.626 22.248 161.278 21.768C160.93 21.276 160.582 20.79 160.234 20.31C159.982 20.514 159.724 20.712 159.46 20.904C159.208 21.096 158.95 21.294 158.686 21.498V23.262C158.686 23.622 158.764 23.862 158.92 23.982C159.028 24.042 159.166 24.09 159.334 24.126C159.502 24.174 159.7 24.198 159.928 24.198V24.774H156.418V24.198C156.634 24.198 156.82 24.174 156.976 24.126C157.144 24.09 157.276 24.042 157.372 23.982C157.516 23.874 157.588 23.634 157.588 23.262V13.956C157.588 13.548 157.408 13.314 157.048 13.254C156.988 13.242 156.916 13.236 156.832 13.236C156.748 13.224 156.646 13.218 156.526 13.218C156.514 13.158 156.502 13.104 156.49 13.056C156.478 12.996 156.466 12.936 156.454 12.876C156.838 12.732 157.21 12.594 157.57 12.462C157.942 12.318 158.314 12.174 158.686 12.03V20.634C159.298 20.13 159.904 19.638 160.504 19.158C161.116 18.666 161.728 18.168 162.34 17.664C162.46 17.58 162.52 17.496 162.52 17.412C162.52 17.352 162.496 17.298 162.448 17.25C162.316 17.082 161.932 16.998 161.296 16.998V16.44H164.932V16.998C164.596 16.998 164.32 17.04 164.104 17.124C164.008 17.172 163.81 17.328 163.51 17.592L163.024 17.916C162.688 18.192 162.352 18.468 162.016 18.744C161.692 19.02 161.356 19.296 161.008 19.572C161.488 20.22 161.962 20.874 162.43 21.534C162.91 22.182 163.39 22.83 163.87 23.478C164.05 23.718 164.248 23.88 164.464 23.964C164.764 24.12 165.106 24.198 165.49 24.198V24.774ZM173.787 22.614C173.847 22.662 173.907 22.71 173.967 22.758C174.039 22.806 174.105 22.854 174.165 22.902C173.877 23.334 173.559 23.694 173.211 23.982C172.863 24.27 172.491 24.51 172.095 24.702C171.555 24.966 170.973 25.098 170.349 25.098C169.161 25.098 168.189 24.72 167.433 23.964C166.629 23.16 166.227 22.074 166.227 20.706C166.227 19.386 166.611 18.324 167.379 17.52C168.135 16.692 169.095 16.278 170.259 16.278C171.423 16.278 172.341 16.614 173.013 17.286C173.733 17.97 174.093 18.96 174.093 20.256C172.977 20.292 171.879 20.334 170.799 20.382C169.719 20.418 168.615 20.454 167.487 20.49C167.487 20.538 167.481 20.586 167.469 20.634C167.469 20.67 167.469 20.712 167.469 20.76C167.469 21.264 167.535 21.72 167.667 22.128C167.811 22.536 168.015 22.902 168.279 23.226C168.831 23.946 169.605 24.306 170.601 24.306C171.129 24.306 171.681 24.168 172.257 23.892C172.521 23.736 172.779 23.556 173.031 23.352C173.295 23.136 173.547 22.89 173.787 22.614ZM167.523 19.806C168.423 19.782 169.311 19.752 170.187 19.716C171.063 19.68 171.951 19.65 172.851 19.626C172.839 18.834 172.593 18.198 172.113 17.718C171.621 17.19 171.003 16.926 170.259 16.926C169.539 16.926 168.909 17.214 168.369 17.79C167.865 18.318 167.583 18.99 167.523 19.806ZM180.109 23.01C180.169 23.058 180.223 23.1 180.271 23.136C180.331 23.172 180.391 23.208 180.451 23.244C180.235 23.748 179.941 24.168 179.569 24.504C179.149 24.9 178.693 25.098 178.201 25.098C177.553 25.098 177.061 24.864 176.725 24.396C176.629 24.228 176.551 24.036 176.491 23.82C176.431 23.604 176.401 23.364 176.401 23.1V17.142H174.997V16.566C175.645 16.566 176.125 16.32 176.437 15.828C176.785 15.264 176.959 14.46 176.959 13.416H177.499V16.44H179.857V17.142H177.499V23.226C177.499 23.862 177.835 24.18 178.507 24.18C179.047 24.18 179.581 23.79 180.109 23.01ZM188.277 22.704C188.277 23.196 188.139 23.634 187.863 24.018C187.803 24.078 187.743 24.138 187.683 24.198C187.635 24.258 187.581 24.318 187.521 24.378C186.981 24.846 186.249 25.08 185.325 25.08C184.689 25.08 184.137 24.978 183.669 24.774C183.609 24.75 183.549 24.732 183.489 24.72C183.441 24.72 183.387 24.72 183.327 24.72H183.147C183.015 24.78 182.889 24.828 182.769 24.864C182.649 24.912 182.523 24.96 182.391 25.008C182.223 24.552 182.049 24.108 181.869 23.676C181.689 23.232 181.515 22.782 181.347 22.326C181.395 22.29 181.437 22.254 181.473 22.218C181.521 22.182 181.575 22.152 181.635 22.128C182.151 22.848 182.643 23.376 183.111 23.712C183.855 24.192 184.587 24.432 185.307 24.432C185.871 24.432 186.345 24.258 186.729 23.91C187.041 23.598 187.197 23.22 187.197 22.776C187.197 22.488 187.083 22.23 186.855 22.002C186.807 21.966 186.747 21.924 186.675 21.876C186.603 21.828 186.519 21.774 186.423 21.714C186.267 21.618 186.063 21.522 185.811 21.426C185.559 21.318 185.253 21.204 184.893 21.084C184.329 20.892 183.861 20.718 183.489 20.562C183.117 20.394 182.835 20.232 182.643 20.076C181.923 19.632 181.563 19.044 181.563 18.312C181.563 17.64 181.881 17.106 182.517 16.71C182.997 16.41 183.597 16.26 184.317 16.26C184.941 16.26 185.583 16.38 186.243 16.62C186.339 16.596 186.441 16.554 186.549 16.494C186.657 16.422 186.777 16.338 186.909 16.242C187.077 16.674 187.245 17.112 187.413 17.556C187.581 17.988 187.749 18.426 187.917 18.87C187.857 18.894 187.797 18.924 187.737 18.96C187.689 18.996 187.635 19.026 187.575 19.05C187.275 18.474 186.873 18.006 186.369 17.646C185.625 17.154 184.941 16.908 184.317 16.908C183.861 16.908 183.501 16.986 183.237 17.142C182.841 17.358 182.643 17.73 182.643 18.258C182.643 18.594 182.817 18.882 183.165 19.122C183.213 19.146 183.261 19.17 183.309 19.194C183.357 19.218 183.411 19.242 183.471 19.266C183.639 19.362 183.849 19.464 184.101 19.572C184.353 19.68 184.635 19.782 184.947 19.878C185.595 20.082 186.129 20.286 186.549 20.49C186.981 20.682 187.311 20.862 187.539 21.03C188.031 21.426 188.277 21.984 188.277 22.704Z" fill="#B3B3B3"/>
<path d="M237.28 24.774H232.798V24.162C233.338 24.162 233.728 24.126 233.968 24.054C234.22 23.982 234.376 23.874 234.436 23.73C234.448 23.718 234.454 23.682 234.454 23.622C234.454 23.562 234.442 23.502 234.418 23.442C234.394 23.37 234.37 23.298 234.346 23.226C234.298 23.13 234.25 23.034 234.202 22.938C234.166 22.83 234.124 22.722 234.076 22.614C233.944 22.218 233.806 21.828 233.662 21.444C233.518 21.06 233.38 20.676 233.248 20.292H228.316C228.172 20.724 228.022 21.156 227.866 21.588C227.722 22.02 227.578 22.458 227.434 22.902C227.374 23.022 227.332 23.136 227.308 23.244C227.296 23.34 227.29 23.43 227.29 23.514C227.29 23.658 227.32 23.76 227.38 23.82C227.488 24.048 227.98 24.162 228.856 24.162V24.774H224.986V24.162C225.298 24.162 225.55 24.12 225.742 24.036C225.946 23.964 226.132 23.826 226.3 23.622C226.384 23.514 226.462 23.376 226.534 23.208C226.606 23.04 226.684 22.854 226.768 22.65C226.84 22.446 226.966 22.08 227.146 21.552C227.338 21.024 227.554 20.412 227.794 19.716C228.034 19.02 228.292 18.288 228.568 17.52C228.844 16.752 229.102 16.02 229.342 15.324C229.582 14.628 229.792 14.016 229.972 13.488C230.164 12.96 230.296 12.594 230.368 12.39C230.524 12.306 230.68 12.228 230.836 12.156C230.992 12.072 231.148 11.988 231.304 11.904C232.024 13.776 232.732 15.63 233.428 17.466C234.124 19.29 234.832 21.138 235.552 23.01C235.708 23.418 235.894 23.712 236.11 23.892C236.362 24.072 236.752 24.162 237.28 24.162V24.774ZM233.014 19.572C232.63 18.552 232.24 17.532 231.844 16.512C231.46 15.492 231.076 14.472 230.692 13.452C230.332 14.472 229.972 15.492 229.612 16.512C229.264 17.532 228.91 18.552 228.55 19.572H233.014ZM245.998 20.652C245.998 21.96 245.626 23.022 244.882 23.838C244.534 24.222 244.15 24.522 243.73 24.738C243.322 24.966 242.848 25.08 242.308 25.08C241.264 25.08 240.412 24.768 239.752 24.144C239.656 24.264 239.566 24.378 239.482 24.486C239.41 24.606 239.326 24.726 239.23 24.846H238.816V14.028C238.816 13.764 238.756 13.578 238.636 13.47C238.516 13.35 238.228 13.29 237.772 13.29C237.76 13.23 237.748 13.164 237.736 13.092C237.724 13.02 237.712 12.954 237.7 12.894C238.084 12.75 238.456 12.606 238.816 12.462C239.176 12.318 239.542 12.174 239.914 12.03V16.98C240.502 16.5 241.3 16.26 242.308 16.26C243.412 16.26 244.3 16.65 244.972 17.43C245.656 18.222 245.998 19.296 245.998 20.652ZM244.792 20.67C244.792 19.578 244.534 18.696 244.018 18.024C243.766 17.7 243.46 17.448 243.1 17.268C242.752 17.088 242.356 16.998 241.912 16.998C241.144 16.998 240.478 17.274 239.914 17.826V23.442C240.466 24.03 241.132 24.324 241.912 24.324C242.716 24.324 243.4 23.97 243.964 23.262C244.516 22.602 244.792 21.738 244.792 20.67ZM254.889 20.688C254.889 22.032 254.505 23.106 253.737 23.91C253.005 24.714 252.069 25.116 250.929 25.116C249.777 25.116 248.835 24.714 248.103 23.91C247.335 23.106 246.951 22.032 246.951 20.688C246.951 19.344 247.335 18.27 248.103 17.466C248.835 16.662 249.777 16.26 250.929 16.26C252.069 16.26 253.005 16.662 253.737 17.466C254.505 18.27 254.889 19.344 254.889 20.688ZM253.665 20.688C253.665 19.584 253.401 18.678 252.873 17.97C252.381 17.262 251.733 16.908 250.929 16.908C250.137 16.908 249.477 17.262 248.949 17.97C248.433 18.678 248.175 19.584 248.175 20.688C248.175 21.78 248.427 22.686 248.931 23.406C249.447 24.102 250.113 24.45 250.929 24.45C251.709 24.45 252.357 24.102 252.873 23.406C253.401 22.698 253.665 21.792 253.665 20.688ZM264.287 24.684C263.915 24.684 263.549 24.696 263.189 24.72C262.829 24.756 262.469 24.804 262.109 24.864C262.097 24.708 262.085 24.552 262.073 24.396C262.073 24.252 262.067 24.108 262.055 23.964C261.275 24.732 260.285 25.116 259.085 25.116C258.461 25.116 257.963 24.984 257.591 24.72C257.039 24.348 256.763 23.736 256.763 22.884V18.114C256.763 17.862 256.703 17.694 256.583 17.61C256.379 17.49 256.073 17.43 255.665 17.43C255.653 17.37 255.647 17.31 255.647 17.25C255.647 17.178 255.641 17.112 255.629 17.052C256.013 16.92 256.385 16.794 256.745 16.674C257.117 16.554 257.489 16.434 257.861 16.314V22.794C257.861 23.742 258.389 24.216 259.445 24.216C260.537 24.216 261.407 23.91 262.055 23.298V18.078C262.055 17.922 261.995 17.808 261.875 17.736C261.683 17.508 261.383 17.394 260.975 17.394C260.963 17.334 260.957 17.274 260.957 17.214C260.957 17.154 260.951 17.094 260.939 17.034C261.659 16.77 262.397 16.524 263.153 16.296V23.226C263.153 23.358 263.171 23.466 263.207 23.55C263.231 23.622 263.255 23.688 263.279 23.748C263.303 23.796 263.327 23.838 263.351 23.874C263.531 24.078 263.843 24.18 264.287 24.18V24.684ZM270.007 23.01C270.067 23.058 270.121 23.1 270.169 23.136C270.229 23.172 270.289 23.208 270.349 23.244C270.133 23.748 269.839 24.168 269.467 24.504C269.047 24.9 268.591 25.098 268.099 25.098C267.451 25.098 266.959 24.864 266.623 24.396C266.527 24.228 266.449 24.036 266.389 23.82C266.329 23.604 266.299 23.364 266.299 23.1V17.142H264.895V16.566C265.543 16.566 266.023 16.32 266.335 15.828C266.683 15.264 266.857 14.46 266.857 13.416H267.397V16.44H269.755V17.142H267.397V23.226C267.397 23.862 267.733 24.18 268.405 24.18C268.945 24.18 269.479 23.79 270.007 23.01ZM285.974 15.504C285.974 16.56 285.62 17.412 284.912 18.06C284.192 18.708 283.25 19.032 282.086 19.032H278.954V23.046C278.954 23.478 279.056 23.778 279.26 23.946C279.536 24.114 280.022 24.198 280.718 24.198V24.774H276.146V24.198C276.77 24.198 277.22 24.114 277.496 23.946C277.7 23.778 277.802 23.478 277.802 23.046V13.866C277.802 13.71 277.778 13.59 277.73 13.506C277.67 13.35 277.592 13.224 277.496 13.128C277.268 12.936 276.818 12.84 276.146 12.84V12.228H282.212C283.268 12.228 284.156 12.516 284.876 13.092C285.608 13.68 285.974 14.484 285.974 15.504ZM284.732 15.504C284.732 14.712 284.45 14.07 283.886 13.578C283.322 13.122 282.65 12.894 281.87 12.894H280.682C280.586 12.894 280.484 12.9 280.376 12.912C280.28 12.912 280.184 12.912 280.088 12.912C279.824 12.912 279.59 12.942 279.386 13.002C279.218 13.062 279.104 13.164 279.044 13.308C278.984 13.44 278.954 13.62 278.954 13.848V18.33H281.852C282.296 18.33 282.692 18.264 283.04 18.132C283.4 17.988 283.706 17.796 283.958 17.556C284.474 17.04 284.732 16.356 284.732 15.504ZM293.619 17.088C293.619 17.712 293.343 18.024 292.791 18.024C292.563 18.024 292.311 17.922 292.035 17.718C291.831 17.55 291.609 17.466 291.369 17.466C291.057 17.466 290.667 17.646 290.199 18.006C289.827 18.294 289.467 18.624 289.119 18.996V23.352C289.119 23.688 289.179 23.91 289.299 24.018C289.431 24.138 289.761 24.198 290.289 24.198V24.774H286.869V24.198C287.181 24.198 287.421 24.174 287.589 24.126C287.757 24.078 287.871 24.006 287.931 23.91C287.991 23.814 288.021 23.664 288.021 23.46V18.204C288.021 17.964 287.979 17.802 287.895 17.718C287.847 17.67 287.745 17.616 287.589 17.556C287.421 17.52 287.217 17.502 286.977 17.502C286.953 17.442 286.935 17.382 286.923 17.322C286.911 17.262 286.893 17.202 286.869 17.142C287.253 16.986 287.631 16.836 288.003 16.692C288.375 16.536 288.747 16.38 289.119 16.224V18.078C289.407 17.802 289.695 17.55 289.983 17.322C290.271 17.094 290.553 16.902 290.829 16.746C291.429 16.398 292.011 16.224 292.575 16.224C293.271 16.224 293.619 16.512 293.619 17.088ZM302.35 20.688C302.35 22.032 301.966 23.106 301.198 23.91C300.466 24.714 299.53 25.116 298.39 25.116C297.238 25.116 296.296 24.714 295.564 23.91C294.796 23.106 294.412 22.032 294.412 20.688C294.412 19.344 294.796 18.27 295.564 17.466C296.296 16.662 297.238 16.26 298.39 16.26C299.53 16.26 300.466 16.662 301.198 17.466C301.966 18.27 302.35 19.344 302.35 20.688ZM301.126 20.688C301.126 19.584 300.862 18.678 300.334 17.97C299.842 17.262 299.194 16.908 298.39 16.908C297.598 16.908 296.938 17.262 296.41 17.97C295.894 18.678 295.636 19.584 295.636 20.688C295.636 21.78 295.888 22.686 296.392 23.406C296.908 24.102 297.574 24.45 298.39 24.45C299.17 24.45 299.818 24.102 300.334 23.406C300.862 22.698 301.126 21.792 301.126 20.688ZM306.366 24.09C306.366 24.942 306.216 25.674 305.916 26.286C305.64 26.898 305.094 27.204 304.278 27.204L304.26 27.186C304.044 27.162 303.846 27.096 303.666 26.988C303.486 26.88 303.342 26.736 303.234 26.556C303.126 26.388 303.072 26.202 303.072 25.998C303.072 25.386 303.324 25.08 303.828 25.08C304.332 25.08 304.584 25.32 304.584 25.8C304.584 25.98 304.566 26.142 304.53 26.286C304.518 26.298 304.512 26.322 304.512 26.358C304.512 26.466 304.578 26.52 304.71 26.52C304.722 26.52 304.734 26.514 304.746 26.502C304.758 26.502 304.77 26.502 304.782 26.502C305.094 26.418 305.262 26.01 305.286 25.278V18.258C305.286 17.97 305.226 17.772 305.106 17.664C304.974 17.556 304.644 17.502 304.116 17.502C304.092 17.442 304.074 17.376 304.062 17.304C304.062 17.232 304.05 17.166 304.026 17.106C304.41 16.962 304.8 16.818 305.196 16.674C305.592 16.53 305.982 16.386 306.366 16.242V24.09ZM306.654 12.876C306.654 13.176 306.558 13.422 306.366 13.614C306.186 13.806 305.958 13.902 305.682 13.902C305.406 13.902 305.178 13.806 304.998 13.614C304.83 13.422 304.746 13.176 304.746 12.876C304.746 12.588 304.836 12.348 305.016 12.156C305.196 11.964 305.418 11.868 305.682 11.868C305.958 11.868 306.186 11.964 306.366 12.156C306.558 12.348 306.654 12.588 306.654 12.876ZM315.383 22.614C315.443 22.662 315.503 22.71 315.563 22.758C315.635 22.806 315.701 22.854 315.761 22.902C315.473 23.334 315.155 23.694 314.807 23.982C314.459 24.27 314.087 24.51 313.691 24.702C313.151 24.966 312.569 25.098 311.945 25.098C310.757 25.098 309.785 24.72 309.029 23.964C308.225 23.16 307.823 22.074 307.823 20.706C307.823 19.386 308.207 18.324 308.975 17.52C309.731 16.692 310.691 16.278 311.855 16.278C313.019 16.278 313.937 16.614 314.609 17.286C315.329 17.97 315.689 18.96 315.689 20.256C314.573 20.292 313.475 20.334 312.395 20.382C311.315 20.418 310.211 20.454 309.083 20.49C309.083 20.538 309.077 20.586 309.065 20.634C309.065 20.67 309.065 20.712 309.065 20.76C309.065 21.264 309.131 21.72 309.263 22.128C309.407 22.536 309.611 22.902 309.875 23.226C310.427 23.946 311.201 24.306 312.197 24.306C312.725 24.306 313.277 24.168 313.853 23.892C314.117 23.736 314.375 23.556 314.627 23.352C314.891 23.136 315.143 22.89 315.383 22.614ZM309.119 19.806C310.019 19.782 310.907 19.752 311.783 19.716C312.659 19.68 313.547 19.65 314.447 19.626C314.435 18.834 314.189 18.198 313.709 17.718C313.217 17.19 312.599 16.926 311.855 16.926C311.135 16.926 310.505 17.214 309.965 17.79C309.461 18.318 309.179 18.99 309.119 19.806ZM323.847 22.614C323.907 22.662 323.967 22.704 324.027 22.74C324.087 22.776 324.147 22.818 324.207 22.866C323.331 24.354 322.155 25.098 320.679 25.098C319.623 25.098 318.723 24.726 317.979 23.982C317.235 23.166 316.863 22.14 316.863 20.904C316.863 19.62 317.271 18.516 318.087 17.592C318.879 16.728 319.869 16.296 321.057 16.296C321.765 16.296 322.383 16.434 322.911 16.71C323.103 16.806 323.277 16.92 323.433 17.052C323.601 17.184 323.739 17.34 323.847 17.52C323.967 17.724 324.027 17.928 324.027 18.132C324.027 18.348 323.967 18.552 323.847 18.744C323.727 18.936 323.547 19.032 323.307 19.032C322.875 19.032 322.587 18.696 322.443 18.024C322.407 17.844 322.335 17.694 322.227 17.574C322.119 17.454 321.987 17.346 321.831 17.25C321.519 17.058 321.135 16.962 320.679 16.962C319.995 16.962 319.389 17.316 318.861 18.024C318.333 18.768 318.069 19.644 318.069 20.652C318.069 21.192 318.135 21.684 318.267 22.128C318.411 22.572 318.621 22.956 318.897 23.28C319.461 23.952 320.163 24.288 321.003 24.288C322.035 24.288 322.983 23.73 323.847 22.614ZM330.23 23.01C330.29 23.058 330.344 23.1 330.392 23.136C330.452 23.172 330.512 23.208 330.572 23.244C330.356 23.748 330.062 24.168 329.69 24.504C329.27 24.9 328.814 25.098 328.322 25.098C327.674 25.098 327.182 24.864 326.846 24.396C326.75 24.228 326.672 24.036 326.612 23.82C326.552 23.604 326.522 23.364 326.522 23.1V17.142H325.118V16.566C325.766 16.566 326.246 16.32 326.558 15.828C326.906 15.264 327.08 14.46 327.08 13.416H327.62V16.44H329.978V17.142H327.62V23.226C327.62 23.862 327.956 24.18 328.628 24.18C329.168 24.18 329.702 23.79 330.23 23.01Z" fill="#B3B3B3"/>
</svg>
