<svg width="162" height="114" viewBox="0 0 162 114" fill="none" xmlns="http://www.w3.org/2000/svg">
<path d="M14 1.00012C6.8203 1.00012 1 6.82042 1 14.0001V100C1 107.18 6.8203 113 14 113H148C155.18 113 161 107.18 161 100V14.0001C161 6.82042 155.18 1.00012 148 1.00012H14Z" stroke="#197686" stroke-width="2"/>
<path d="M22.1445 15.2189V18.6993H20.3281V15.2189H22.1445ZM21.9219 34.3556V37.4962H20.1172V34.3556H21.9219ZM23.4453 30.5353C23.4453 30.09 23.3594 29.7032 23.1875 29.3751C23.0234 29.047 22.7461 28.754 22.3555 28.4962C21.9727 28.2384 21.457 27.9923 20.8086 27.7579C19.8008 27.3907 18.918 26.9884 18.1602 26.5509C17.4023 26.1056 16.8125 25.5548 16.3906 24.8986C15.9766 24.2423 15.7695 23.4142 15.7695 22.4142C15.7695 21.4532 15.9922 20.6212 16.4375 19.9181C16.8906 19.2072 17.5195 18.6603 18.3242 18.2775C19.1289 17.8868 20.0625 17.6915 21.125 17.6915C21.9531 17.6915 22.6953 17.8165 23.3516 18.0665C24.0156 18.3087 24.582 18.6642 25.0508 19.1329C25.5273 19.6017 25.8906 20.1798 26.1406 20.8673C26.3984 21.547 26.5273 22.3243 26.5273 23.1993H23.4336C23.4336 22.715 23.3789 22.2853 23.2695 21.9103C23.1602 21.5353 23.0039 21.2189 22.8008 20.9611C22.5977 20.6954 22.3516 20.4962 22.0625 20.3634C21.7812 20.2306 21.4609 20.1642 21.1016 20.1642C20.5859 20.1642 20.1602 20.2618 19.8242 20.4572C19.4961 20.6525 19.2539 20.9181 19.0977 21.254C18.9492 21.59 18.875 21.9767 18.875 22.4142C18.875 22.8361 18.9531 23.2072 19.1094 23.5275C19.2734 23.84 19.5469 24.1251 19.9297 24.3829C20.3203 24.6407 20.8555 24.9025 21.5352 25.1681C22.5508 25.5431 23.4336 25.9572 24.1836 26.4103C24.9336 26.8556 25.5156 27.4025 25.9297 28.0509C26.3438 28.6993 26.5508 29.5197 26.5508 30.5118C26.5508 31.5275 26.3164 32.3868 25.8477 33.09C25.3867 33.7931 24.7383 34.3282 23.9023 34.6954C23.0664 35.0626 22.0938 35.2462 20.9844 35.2462C20.2734 35.2462 19.5703 35.1525 18.875 34.965C18.1797 34.7775 17.5469 34.4728 16.9766 34.0509C16.4141 33.6212 15.9648 33.0548 15.6289 32.3517C15.293 31.6407 15.125 30.7697 15.125 29.7384H18.2305C18.2305 30.3322 18.3086 30.8243 18.4648 31.215C18.6211 31.6056 18.832 31.9181 19.0977 32.1525C19.3633 32.379 19.6602 32.5392 19.9883 32.6329C20.3164 32.7267 20.6484 32.7736 20.9844 32.7736C21.5312 32.7736 21.9844 32.6798 22.3438 32.4923C22.7109 32.3048 22.9844 32.0431 23.1641 31.7072C23.3516 31.3634 23.4453 30.9728 23.4453 30.5353ZM36.9102 17.8907V35.0001H33.8047V21.5118L29.6914 22.8712V20.3634L36.5586 17.8907H36.9102ZM45.7227 27.1486L43.25 26.5509L44.1992 17.9376H53.5859V20.504H46.7656L46.3203 24.4884C46.5625 24.34 46.9141 24.1915 47.375 24.0431C47.8438 23.8868 48.3711 23.8087 48.957 23.8087C49.7695 23.8087 50.4961 23.9415 51.1367 24.2072C51.7773 24.465 52.3203 24.84 52.7656 25.3322C53.2188 25.8243 53.5586 26.4259 53.7852 27.1368C54.0195 27.84 54.1367 28.6368 54.1367 29.5275C54.1367 30.3087 54.0195 31.0431 53.7852 31.7306C53.5586 32.4103 53.2109 33.0157 52.7422 33.547C52.2734 34.0704 51.6836 34.4845 50.9727 34.7892C50.2617 35.0861 49.4258 35.2345 48.4648 35.2345C47.7383 35.2345 47.0391 35.129 46.3672 34.9181C45.7031 34.6993 45.1055 34.3829 44.5742 33.9689C44.043 33.547 43.6172 33.0314 43.2969 32.422C42.9844 31.8126 42.8125 31.1134 42.7812 30.3243H45.8398C45.8945 30.8478 46.0352 31.2931 46.2617 31.6603C46.4883 32.0275 46.7852 32.3087 47.1523 32.504C47.5273 32.6993 47.9609 32.797 48.4531 32.797C48.8984 32.797 49.2812 32.715 49.6016 32.5509C49.9297 32.379 50.1992 32.1407 50.4102 31.8361C50.6211 31.5314 50.7773 31.172 50.8789 30.7579C50.9805 30.3439 51.0312 29.8907 51.0312 29.3986C51.0312 28.922 50.9727 28.4884 50.8555 28.0978C50.7383 27.6993 50.5586 27.3556 50.3164 27.0665C50.0742 26.7775 49.7695 26.5548 49.4023 26.3986C49.043 26.2423 48.6211 26.1642 48.1367 26.1642C47.4883 26.1642 46.9883 26.2618 46.6367 26.4572C46.293 26.6525 45.9883 26.8829 45.7227 27.1486ZM67.6602 25.004V27.8751C67.6602 29.1876 67.5273 30.3087 67.2617 31.2384C66.9961 32.1681 66.6133 32.9298 66.1133 33.5236C65.6133 34.1095 65.0156 34.5431 64.3203 34.8243C63.625 35.0978 62.8516 35.2345 62 35.2345C61.3203 35.2345 60.6875 35.1486 60.1016 34.9767C59.5156 34.797 58.9883 34.5236 58.5195 34.1564C58.0586 33.7814 57.6602 33.3048 57.3242 32.7267C56.9961 32.1486 56.7422 31.4572 56.5625 30.6525C56.3906 29.8478 56.3047 28.922 56.3047 27.8751V25.004C56.3047 23.6915 56.4375 22.5743 56.7031 21.6525C56.9766 20.7306 57.3633 19.9767 57.8633 19.3907C58.3633 18.8048 58.9609 18.379 59.6562 18.1134C60.3516 17.84 61.125 17.7032 61.9766 17.7032C62.6641 17.7032 63.2969 17.7892 63.875 17.9611C64.4609 18.1329 64.9844 18.4025 65.4453 18.7697C65.9141 19.129 66.3125 19.5978 66.6406 20.1759C66.9688 20.7462 67.2188 21.4337 67.3906 22.2384C67.5703 23.0353 67.6602 23.9572 67.6602 25.004ZM64.5664 28.297V24.5704C64.5664 23.9142 64.5273 23.3439 64.4492 22.8595C64.3789 22.3673 64.2734 21.9493 64.1328 21.6056C63.9922 21.2618 63.8164 20.9845 63.6055 20.7736C63.3945 20.5548 63.1523 20.3947 62.8789 20.2931C62.6055 20.1915 62.3047 20.1407 61.9766 20.1407C61.5703 20.1407 61.207 20.2228 60.8867 20.3868C60.5664 20.5431 60.2969 20.7931 60.0781 21.1368C59.8594 21.4806 59.6914 21.9376 59.5742 22.5079C59.4648 23.0704 59.4102 23.7579 59.4102 24.5704V28.297C59.4102 28.9532 59.4453 29.5275 59.5156 30.0197C59.5938 30.5118 59.7031 30.9337 59.8438 31.2853C59.9922 31.6368 60.168 31.9259 60.3711 32.1525C60.582 32.3712 60.8242 32.5353 61.0977 32.6447C61.3711 32.7462 61.6719 32.797 62 32.797C62.4141 32.797 62.7773 32.715 63.0898 32.5509C63.4102 32.3868 63.6797 32.129 63.8984 31.7775C64.1172 31.4181 64.2812 30.9532 64.3906 30.3829C64.5078 29.8048 64.5664 29.1095 64.5664 28.297Z" fill="white"/>
<path d="M18.9922 67.2736L22.3438 57.6251H23.9766L19.7656 69.0001H18.6016L18.9922 67.2736ZM15.8594 57.6251L19.1797 67.2736L19.5938 69.0001H18.4297L14.2266 57.6251H15.8594ZM27.125 57.6251V69.0001H25.6172V57.6251H27.125ZM34.0625 64.5392H31.0234V63.3126H34.0625C34.651 63.3126 35.1276 63.2189 35.4922 63.0314C35.8568 62.8439 36.1224 62.5835 36.2891 62.2501C36.4609 61.9168 36.5469 61.5366 36.5469 61.1095C36.5469 60.7189 36.4609 60.3517 36.2891 60.0079C36.1224 59.6642 35.8568 59.3881 35.4922 59.1798C35.1276 58.9663 34.651 58.8595 34.0625 58.8595H31.375V69.0001H29.8672V57.6251H34.0625C34.9219 57.6251 35.6484 57.7736 36.2422 58.0704C36.8359 58.3673 37.2865 58.7788 37.5938 59.3048C37.901 59.8256 38.0547 60.422 38.0547 61.0939C38.0547 61.823 37.901 62.4454 37.5938 62.9611C37.2865 63.4767 36.8359 63.8699 36.2422 64.1407C35.6484 64.4064 34.9219 64.5392 34.0625 64.5392ZM48.1406 58.6329L44.375 69.0001H42.8359L47.1719 57.6251H48.1641L48.1406 58.6329ZM51.2969 69.0001L47.5234 58.6329L47.5 57.6251H48.4922L52.8438 69.0001H51.2969ZM51.1016 64.7892V66.0236H44.7109V64.7892H51.1016ZM61.1406 65.3829H62.6406C62.5625 66.1017 62.3568 66.7449 62.0234 67.3126C61.6901 67.8803 61.2188 68.3309 60.6094 68.6642C60 68.9923 59.2396 69.1564 58.3281 69.1564C57.6615 69.1564 57.0547 69.0314 56.5078 68.7814C55.9661 68.5314 55.5 68.1772 55.1094 67.7189C54.7188 67.2553 54.4167 66.7006 54.2031 66.0548C53.9948 65.4038 53.8906 64.6798 53.8906 63.8829V62.7501C53.8906 61.9532 53.9948 61.2319 54.2031 60.5861C54.4167 59.935 54.7214 59.3777 55.1172 58.9142C55.5182 58.4506 56 58.0939 56.5625 57.8439C57.125 57.5939 57.7578 57.4689 58.4609 57.4689C59.3203 57.4689 60.0469 57.6303 60.6406 57.9532C61.2344 58.2762 61.6953 58.7241 62.0234 59.297C62.3568 59.8647 62.5625 60.5236 62.6406 61.2736H61.1406C61.0677 60.7423 60.9323 60.2866 60.7344 59.9064C60.5365 59.521 60.2552 59.2241 59.8906 59.0157C59.526 58.8074 59.0495 58.7032 58.4609 58.7032C57.9557 58.7032 57.5104 58.7996 57.125 58.9923C56.7448 59.185 56.4245 59.4585 56.1641 59.8126C55.9089 60.1668 55.7161 60.5913 55.5859 61.0861C55.4557 61.5809 55.3906 62.1303 55.3906 62.7345V63.8829C55.3906 64.4402 55.4479 64.9637 55.5625 65.4532C55.6823 65.9428 55.862 66.3725 56.1016 66.7423C56.3411 67.1121 56.6458 67.4038 57.0156 67.6173C57.3854 67.8256 57.8229 67.9298 58.3281 67.9298C58.9688 67.9298 59.4792 67.8282 59.8594 67.6251C60.2396 67.422 60.526 67.1303 60.7188 66.7501C60.9167 66.3699 61.0573 65.9142 61.1406 65.3829ZM71.5625 65.3829H73.0625C72.9844 66.1017 72.7786 66.7449 72.4453 67.3126C72.112 67.8803 71.6406 68.3309 71.0312 68.6642C70.4219 68.9923 69.6615 69.1564 68.75 69.1564C68.0833 69.1564 67.4766 69.0314 66.9297 68.7814C66.388 68.5314 65.9219 68.1772 65.5312 67.7189C65.1406 67.2553 64.8385 66.7006 64.625 66.0548C64.4167 65.4038 64.3125 64.6798 64.3125 63.8829V62.7501C64.3125 61.9532 64.4167 61.2319 64.625 60.5861C64.8385 59.935 65.1432 59.3777 65.5391 58.9142C65.9401 58.4506 66.4219 58.0939 66.9844 57.8439C67.5469 57.5939 68.1797 57.4689 68.8828 57.4689C69.7422 57.4689 70.4688 57.6303 71.0625 57.9532C71.6562 58.2762 72.1172 58.7241 72.4453 59.297C72.7786 59.8647 72.9844 60.5236 73.0625 61.2736H71.5625C71.4896 60.7423 71.3542 60.2866 71.1562 59.9064C70.9583 59.521 70.6771 59.2241 70.3125 59.0157C69.9479 58.8074 69.4714 58.7032 68.8828 58.7032C68.3776 58.7032 67.9323 58.7996 67.5469 58.9923C67.1667 59.185 66.8464 59.4585 66.5859 59.8126C66.3307 60.1668 66.138 60.5913 66.0078 61.0861C65.8776 61.5809 65.8125 62.1303 65.8125 62.7345V63.8829C65.8125 64.4402 65.8698 64.9637 65.9844 65.4532C66.1042 65.9428 66.2839 66.3725 66.5234 66.7423C66.763 67.1121 67.0677 67.4038 67.4375 67.6173C67.8073 67.8256 68.2448 67.9298 68.75 67.9298C69.3906 67.9298 69.901 67.8282 70.2812 67.6251C70.6615 67.422 70.9479 67.1303 71.1406 66.7501C71.3385 66.3699 71.4792 65.9142 71.5625 65.3829ZM82.3438 67.7736V69.0001H76.3203V67.7736H82.3438ZM76.625 57.6251V69.0001H75.1172V57.6251H76.625ZM81.5469 62.5157V63.7423H76.3203V62.5157H81.5469ZM82.2656 57.6251V58.8595H76.3203V57.6251H82.2656ZM90.2734 66.1251C90.2734 65.8595 90.2318 65.6251 90.1484 65.422C90.0703 65.2137 89.9297 65.0262 89.7266 64.8595C89.5286 64.6928 89.2526 64.534 88.8984 64.3829C88.5495 64.2319 88.1068 64.0782 87.5703 63.922C87.0078 63.7553 86.5 63.5704 86.0469 63.3673C85.5938 63.159 85.2057 62.922 84.8828 62.6564C84.5599 62.3907 84.3125 62.0861 84.1406 61.7423C83.9688 61.3986 83.8828 61.0053 83.8828 60.5626C83.8828 60.1199 83.974 59.7111 84.1562 59.3361C84.3385 58.9611 84.599 58.6355 84.9375 58.3595C85.2812 58.0782 85.6901 57.8595 86.1641 57.7032C86.638 57.547 87.1667 57.4689 87.75 57.4689C88.6042 57.4689 89.3281 57.6329 89.9219 57.9611C90.5208 58.284 90.9766 58.7085 91.2891 59.2345C91.6016 59.7553 91.7578 60.3126 91.7578 60.9064H90.2578C90.2578 60.4793 90.1667 60.1017 89.9844 59.7736C89.8021 59.4402 89.526 59.1798 89.1562 58.9923C88.7865 58.7996 88.3177 58.7032 87.75 58.7032C87.2135 58.7032 86.7708 58.784 86.4219 58.9454C86.0729 59.1069 85.8125 59.3256 85.6406 59.6017C85.474 59.8777 85.3906 60.1928 85.3906 60.547C85.3906 60.7866 85.4401 61.0053 85.5391 61.2032C85.6432 61.396 85.8021 61.5756 86.0156 61.7423C86.2344 61.909 86.5104 62.0626 86.8438 62.2032C87.1823 62.3439 87.5859 62.4793 88.0547 62.6095C88.7005 62.7918 89.2578 62.9949 89.7266 63.2189C90.1953 63.4428 90.5807 63.6954 90.8828 63.9767C91.1901 64.2527 91.4167 64.5678 91.5625 64.922C91.7135 65.271 91.7891 65.6668 91.7891 66.1095C91.7891 66.573 91.6953 66.9923 91.5078 67.3673C91.3203 67.7423 91.0521 68.0626 90.7031 68.3282C90.3542 68.5939 89.9349 68.7996 89.4453 68.9454C88.9609 69.0861 88.4193 69.1564 87.8203 69.1564C87.2943 69.1564 86.776 69.0835 86.2656 68.9376C85.7604 68.7918 85.2995 68.573 84.8828 68.2814C84.4714 67.9897 84.1406 67.6303 83.8906 67.2032C83.6458 66.771 83.5234 66.271 83.5234 65.7032H85.0234C85.0234 66.0939 85.099 66.4298 85.25 66.7111C85.401 66.9871 85.6068 67.2163 85.8672 67.3986C86.1328 67.5809 86.4323 67.7163 86.7656 67.8048C87.1042 67.8881 87.4557 67.9298 87.8203 67.9298C88.3464 67.9298 88.7917 67.8569 89.1562 67.7111C89.5208 67.5652 89.7969 67.3569 89.9844 67.0861C90.1771 66.8152 90.2734 66.4949 90.2734 66.1251ZM99.7734 66.1251C99.7734 65.8595 99.7318 65.6251 99.6484 65.422C99.5703 65.2137 99.4297 65.0262 99.2266 64.8595C99.0286 64.6928 98.7526 64.534 98.3984 64.3829C98.0495 64.2319 97.6068 64.0782 97.0703 63.922C96.5078 63.7553 96 63.5704 95.5469 63.3673C95.0938 63.159 94.7057 62.922 94.3828 62.6564C94.0599 62.3907 93.8125 62.0861 93.6406 61.7423C93.4688 61.3986 93.3828 61.0053 93.3828 60.5626C93.3828 60.1199 93.474 59.7111 93.6562 59.3361C93.8385 58.9611 94.099 58.6355 94.4375 58.3595C94.7812 58.0782 95.1901 57.8595 95.6641 57.7032C96.138 57.547 96.6667 57.4689 97.25 57.4689C98.1042 57.4689 98.8281 57.6329 99.4219 57.9611C100.021 58.284 100.477 58.7085 100.789 59.2345C101.102 59.7553 101.258 60.3126 101.258 60.9064H99.7578C99.7578 60.4793 99.6667 60.1017 99.4844 59.7736C99.3021 59.4402 99.026 59.1798 98.6562 58.9923C98.2865 58.7996 97.8177 58.7032 97.25 58.7032C96.7135 58.7032 96.2708 58.784 95.9219 58.9454C95.5729 59.1069 95.3125 59.3256 95.1406 59.6017C94.974 59.8777 94.8906 60.1928 94.8906 60.547C94.8906 60.7866 94.9401 61.0053 95.0391 61.2032C95.1432 61.396 95.3021 61.5756 95.5156 61.7423C95.7344 61.909 96.0104 62.0626 96.3438 62.2032C96.6823 62.3439 97.0859 62.4793 97.5547 62.6095C98.2005 62.7918 98.7578 62.9949 99.2266 63.2189C99.6953 63.4428 100.081 63.6954 100.383 63.9767C100.69 64.2527 100.917 64.5678 101.062 64.922C101.214 65.271 101.289 65.6668 101.289 66.1095C101.289 66.573 101.195 66.9923 101.008 67.3673C100.82 67.7423 100.552 68.0626 100.203 68.3282C99.8542 68.5939 99.4349 68.7996 98.9453 68.9454C98.4609 69.0861 97.9193 69.1564 97.3203 69.1564C96.7943 69.1564 96.276 69.0835 95.7656 68.9376C95.2604 68.7918 94.7995 68.573 94.3828 68.2814C93.9714 67.9897 93.6406 67.6303 93.3906 67.2032C93.1458 66.771 93.0234 66.271 93.0234 65.7032H94.5234C94.5234 66.0939 94.599 66.4298 94.75 66.7111C94.901 66.9871 95.1068 67.2163 95.3672 67.3986C95.6328 67.5809 95.9323 67.7163 96.2656 67.8048C96.6042 67.8881 96.9557 67.9298 97.3203 67.9298C97.8464 67.9298 98.2917 67.8569 98.6562 67.7111C99.0208 67.5652 99.2969 67.3569 99.4844 67.0861C99.6771 66.8152 99.7734 66.4949 99.7734 66.1251Z" fill="#FAFAFA"/>
<path d="M21.3486 89.9611V91.0001H14.834V90.0909L18.0947 86.4611C18.4958 86.0144 18.8057 85.6362 19.0244 85.3263C19.2477 85.0118 19.4027 84.7316 19.4893 84.4855C19.5804 84.2348 19.626 83.9796 19.626 83.7198C19.626 83.3917 19.5576 83.0955 19.4209 82.8312C19.2887 82.5623 19.0928 82.3481 18.833 82.1886C18.5732 82.0291 18.2588 81.9493 17.8896 81.9493C17.4476 81.9493 17.0785 82.0359 16.7822 82.2091C16.4906 82.3777 16.2718 82.6147 16.126 82.92C15.9801 83.2254 15.9072 83.5763 15.9072 83.9728H14.6426C14.6426 83.4122 14.7656 82.8995 15.0117 82.4347C15.2578 81.9698 15.6224 81.6007 16.1055 81.3273C16.5885 81.0493 17.1833 80.9103 17.8896 80.9103C18.5186 80.9103 19.0563 81.0219 19.5029 81.2452C19.9495 81.464 20.2913 81.7739 20.5283 82.1749C20.7699 82.5714 20.8906 83.0363 20.8906 83.5695C20.8906 83.8611 20.8405 84.1573 20.7402 84.4581C20.6445 84.7544 20.5101 85.0506 20.3369 85.3468C20.1683 85.643 19.9701 85.9347 19.7422 86.2218C19.5189 86.5089 19.2796 86.7915 19.0244 87.0695L16.3584 89.9611H21.3486ZM28.9502 85.2306V86.7482C28.9502 87.5639 28.8773 88.2521 28.7314 88.8126C28.5856 89.3732 28.376 89.8243 28.1025 90.1661C27.8291 90.5079 27.4987 90.7563 27.1113 90.9113C26.7285 91.0616 26.2956 91.1368 25.8125 91.1368C25.4297 91.1368 25.0765 91.089 24.7529 90.9933C24.4294 90.8976 24.1377 90.7449 23.8779 90.5353C23.6227 90.3211 23.404 90.0431 23.2217 89.7013C23.0394 89.3595 22.9004 88.9448 22.8047 88.4572C22.709 87.9695 22.6611 87.3999 22.6611 86.7482V85.2306C22.6611 84.4148 22.734 83.7312 22.8799 83.1798C23.0303 82.6284 23.2422 82.1863 23.5156 81.8536C23.7891 81.5164 24.1172 81.2749 24.5 81.129C24.8874 80.9832 25.3203 80.9103 25.7988 80.9103C26.1862 80.9103 26.5417 80.9581 26.8652 81.0538C27.1934 81.145 27.485 81.2931 27.7402 81.4982C27.9954 81.6987 28.2119 81.9676 28.3896 82.3048C28.5719 82.6375 28.7109 83.0454 28.8066 83.5284C28.9023 84.0115 28.9502 84.5789 28.9502 85.2306ZM27.6787 86.9532V85.0187C27.6787 84.5721 27.6514 84.1801 27.5967 83.8429C27.5465 83.5011 27.4714 83.2094 27.3711 82.9679C27.2708 82.7264 27.1432 82.5304 26.9883 82.38C26.8379 82.2296 26.6624 82.1202 26.4619 82.0519C26.266 81.979 26.0449 81.9425 25.7988 81.9425C25.498 81.9425 25.2314 81.9995 24.999 82.1134C24.7666 82.2228 24.5706 82.3982 24.4111 82.6398C24.2562 82.8813 24.1377 83.198 24.0557 83.59C23.9736 83.9819 23.9326 84.4581 23.9326 85.0187V86.9532C23.9326 87.3999 23.9577 87.7941 24.0078 88.1359C24.0625 88.4777 24.1423 88.7739 24.2471 89.0245C24.3519 89.2706 24.4795 89.4734 24.6299 89.6329C24.7803 89.7924 24.9535 89.9109 25.1494 89.9884C25.3499 90.0613 25.571 90.0978 25.8125 90.0978C26.1224 90.0978 26.3936 90.0385 26.626 89.92C26.8584 89.8016 27.0521 89.617 27.207 89.3663C27.3665 89.1111 27.485 88.7853 27.5625 88.3888C27.64 87.9878 27.6787 87.5092 27.6787 86.9532ZM35.1162 81.047L30.9668 91.8546H29.8799L34.0361 81.047H35.1162ZM37.96 86.2628L36.9482 86.0031L37.4473 81.047H42.5537V82.2159H38.5205L38.2197 84.923C38.402 84.8182 38.6322 84.7202 38.9102 84.629C39.1927 84.5379 39.5163 84.4923 39.8809 84.4923C40.3411 84.4923 40.7536 84.5721 41.1182 84.7316C41.4827 84.8865 41.7926 85.1098 42.0479 85.4015C42.3076 85.6932 42.5059 86.0441 42.6426 86.4542C42.7793 86.8644 42.8477 87.3224 42.8477 87.8282C42.8477 88.3068 42.7816 88.7465 42.6494 89.1476C42.5218 89.5486 42.3281 89.8995 42.0684 90.2003C41.8086 90.4965 41.4805 90.7267 41.084 90.8907C40.6921 91.0548 40.2295 91.1368 39.6963 91.1368C39.2952 91.1368 38.9147 91.0822 38.5547 90.9728C38.1992 90.8588 37.8802 90.6879 37.5977 90.4601C37.3197 90.2277 37.0918 89.9406 36.9141 89.5988C36.7409 89.2524 36.6315 88.8468 36.5859 88.382H37.7891C37.8438 88.7557 37.9531 89.0701 38.1172 89.3253C38.2812 89.5805 38.4954 89.7742 38.7598 89.9064C39.0286 90.034 39.3408 90.0978 39.6963 90.0978C39.9971 90.0978 40.2637 90.0454 40.4961 89.9406C40.7285 89.8357 40.9245 89.6853 41.084 89.4894C41.2435 89.2934 41.3643 89.0564 41.4463 88.7784C41.5329 88.5004 41.5762 88.1883 41.5762 87.8419C41.5762 87.5275 41.5329 87.2358 41.4463 86.9669C41.3597 86.698 41.2298 86.4633 41.0566 86.2628C40.888 86.0623 40.6807 85.9073 40.4346 85.798C40.1885 85.684 39.9059 85.6271 39.5869 85.6271C39.1631 85.6271 38.8418 85.684 38.623 85.798C38.4089 85.9119 38.1878 86.0669 37.96 86.2628ZM50.7568 89.9611V91.0001H44.2422V90.0909L47.5029 86.4611C47.904 86.0144 48.2139 85.6362 48.4326 85.3263C48.6559 85.0118 48.8109 84.7316 48.8975 84.4855C48.9886 84.2348 49.0342 83.9796 49.0342 83.7198C49.0342 83.3917 48.9658 83.0955 48.8291 82.8312C48.6969 82.5623 48.501 82.3481 48.2412 82.1886C47.9814 82.0291 47.667 81.9493 47.2979 81.9493C46.8558 81.9493 46.4867 82.0359 46.1904 82.2091C45.8988 82.3777 45.68 82.6147 45.5342 82.92C45.3883 83.2254 45.3154 83.5763 45.3154 83.9728H44.0508C44.0508 83.4122 44.1738 82.8995 44.4199 82.4347C44.666 81.9698 45.0306 81.6007 45.5137 81.3273C45.9967 81.0493 46.5915 80.9103 47.2979 80.9103C47.9268 80.9103 48.4645 81.0219 48.9111 81.2452C49.3577 81.464 49.6995 81.7739 49.9365 82.1749C50.1781 82.5714 50.2988 83.0363 50.2988 83.5695C50.2988 83.8611 50.2487 84.1573 50.1484 84.4581C50.0527 84.7544 49.9183 85.0506 49.7451 85.3468C49.5765 85.643 49.3783 85.9347 49.1504 86.2218C48.9271 86.5089 48.6878 86.7915 48.4326 87.0695L45.7666 89.9611H50.7568Z" fill="#D9D9D9"/>
</svg>
