<svg width="162" height="114" viewBox="0 0 162 114" fill="none" xmlns="http://www.w3.org/2000/svg">
<path d="M14 1.00012C6.8203 1.00012 1 6.82042 1 14.0001V100C1 107.18 6.8203 113 14 113H148C155.18 113 161 107.18 161 100V14.0001C161 6.82042 155.18 1.00012 148 1.00012H14Z" stroke="#197686" stroke-width="2"/>
<path d="M22.1445 15.2189V18.6993H20.3281V15.2189H22.1445ZM21.9219 34.3556V37.4962H20.1172V34.3556H21.9219ZM23.4453 30.5353C23.4453 30.09 23.3594 29.7032 23.1875 29.3751C23.0234 29.047 22.7461 28.754 22.3555 28.4962C21.9727 28.2384 21.457 27.9923 20.8086 27.7579C19.8008 27.3907 18.918 26.9884 18.1602 26.5509C17.4023 26.1056 16.8125 25.5548 16.3906 24.8986C15.9766 24.2423 15.7695 23.4142 15.7695 22.4142C15.7695 21.4532 15.9922 20.6212 16.4375 19.9181C16.8906 19.2072 17.5195 18.6603 18.3242 18.2775C19.1289 17.8868 20.0625 17.6915 21.125 17.6915C21.9531 17.6915 22.6953 17.8165 23.3516 18.0665C24.0156 18.3087 24.582 18.6642 25.0508 19.1329C25.5273 19.6017 25.8906 20.1798 26.1406 20.8673C26.3984 21.547 26.5273 22.3243 26.5273 23.1993H23.4336C23.4336 22.715 23.3789 22.2853 23.2695 21.9103C23.1602 21.5353 23.0039 21.2189 22.8008 20.9611C22.5977 20.6954 22.3516 20.4962 22.0625 20.3634C21.7812 20.2306 21.4609 20.1642 21.1016 20.1642C20.5859 20.1642 20.1602 20.2618 19.8242 20.4572C19.4961 20.6525 19.2539 20.9181 19.0977 21.254C18.9492 21.59 18.875 21.9767 18.875 22.4142C18.875 22.8361 18.9531 23.2072 19.1094 23.5275C19.2734 23.84 19.5469 24.1251 19.9297 24.3829C20.3203 24.6407 20.8555 24.9025 21.5352 25.1681C22.5508 25.5431 23.4336 25.9572 24.1836 26.4103C24.9336 26.8556 25.5156 27.4025 25.9297 28.0509C26.3438 28.6993 26.5508 29.5197 26.5508 30.5118C26.5508 31.5275 26.3164 32.3868 25.8477 33.09C25.3867 33.7931 24.7383 34.3282 23.9023 34.6954C23.0664 35.0626 22.0938 35.2462 20.9844 35.2462C20.2734 35.2462 19.5703 35.1525 18.875 34.965C18.1797 34.7775 17.5469 34.4728 16.9766 34.0509C16.4141 33.6212 15.9648 33.0548 15.6289 32.3517C15.293 31.6407 15.125 30.7697 15.125 29.7384H18.2305C18.2305 30.3322 18.3086 30.8243 18.4648 31.215C18.6211 31.6056 18.832 31.9181 19.0977 32.1525C19.3633 32.379 19.6602 32.5392 19.9883 32.6329C20.3164 32.7267 20.6484 32.7736 20.9844 32.7736C21.5312 32.7736 21.9844 32.6798 22.3438 32.4923C22.7109 32.3048 22.9844 32.0431 23.1641 31.7072C23.3516 31.3634 23.4453 30.9728 23.4453 30.5353ZM36.9102 17.8907V35.0001H33.8047V21.5118L29.6914 22.8712V20.3634L36.5586 17.8907H36.9102ZM45.7227 27.1486L43.25 26.5509L44.1992 17.9376H53.5859V20.504H46.7656L46.3203 24.4884C46.5625 24.34 46.9141 24.1915 47.375 24.0431C47.8438 23.8868 48.3711 23.8087 48.957 23.8087C49.7695 23.8087 50.4961 23.9415 51.1367 24.2072C51.7773 24.465 52.3203 24.84 52.7656 25.3322C53.2188 25.8243 53.5586 26.4259 53.7852 27.1368C54.0195 27.84 54.1367 28.6368 54.1367 29.5275C54.1367 30.3087 54.0195 31.0431 53.7852 31.7306C53.5586 32.4103 53.2109 33.0157 52.7422 33.547C52.2734 34.0704 51.6836 34.4845 50.9727 34.7892C50.2617 35.0861 49.4258 35.2345 48.4648 35.2345C47.7383 35.2345 47.0391 35.129 46.3672 34.9181C45.7031 34.6993 45.1055 34.3829 44.5742 33.9689C44.043 33.547 43.6172 33.0314 43.2969 32.422C42.9844 31.8126 42.8125 31.1134 42.7812 30.3243H45.8398C45.8945 30.8478 46.0352 31.2931 46.2617 31.6603C46.4883 32.0275 46.7852 32.3087 47.1523 32.504C47.5273 32.6993 47.9609 32.797 48.4531 32.797C48.8984 32.797 49.2812 32.715 49.6016 32.5509C49.9297 32.379 50.1992 32.1407 50.4102 31.8361C50.6211 31.5314 50.7773 31.172 50.8789 30.7579C50.9805 30.3439 51.0312 29.8907 51.0312 29.3986C51.0312 28.922 50.9727 28.4884 50.8555 28.0978C50.7383 27.6993 50.5586 27.3556 50.3164 27.0665C50.0742 26.7775 49.7695 26.5548 49.4023 26.3986C49.043 26.2423 48.6211 26.1642 48.1367 26.1642C47.4883 26.1642 46.9883 26.2618 46.6367 26.4572C46.293 26.6525 45.9883 26.8829 45.7227 27.1486ZM67.6602 25.004V27.8751C67.6602 29.1876 67.5273 30.3087 67.2617 31.2384C66.9961 32.1681 66.6133 32.9298 66.1133 33.5236C65.6133 34.1095 65.0156 34.5431 64.3203 34.8243C63.625 35.0978 62.8516 35.2345 62 35.2345C61.3203 35.2345 60.6875 35.1486 60.1016 34.9767C59.5156 34.797 58.9883 34.5236 58.5195 34.1564C58.0586 33.7814 57.6602 33.3048 57.3242 32.7267C56.9961 32.1486 56.7422 31.4572 56.5625 30.6525C56.3906 29.8478 56.3047 28.922 56.3047 27.8751V25.004C56.3047 23.6915 56.4375 22.5743 56.7031 21.6525C56.9766 20.7306 57.3633 19.9767 57.8633 19.3907C58.3633 18.8048 58.9609 18.379 59.6562 18.1134C60.3516 17.84 61.125 17.7032 61.9766 17.7032C62.6641 17.7032 63.2969 17.7892 63.875 17.9611C64.4609 18.1329 64.9844 18.4025 65.4453 18.7697C65.9141 19.129 66.3125 19.5978 66.6406 20.1759C66.9688 20.7462 67.2188 21.4337 67.3906 22.2384C67.5703 23.0353 67.6602 23.9572 67.6602 25.004ZM64.5664 28.297V24.5704C64.5664 23.9142 64.5273 23.3439 64.4492 22.8595C64.3789 22.3673 64.2734 21.9493 64.1328 21.6056C63.9922 21.2618 63.8164 20.9845 63.6055 20.7736C63.3945 20.5548 63.1523 20.3947 62.8789 20.2931C62.6055 20.1915 62.3047 20.1407 61.9766 20.1407C61.5703 20.1407 61.207 20.2228 60.8867 20.3868C60.5664 20.5431 60.2969 20.7931 60.0781 21.1368C59.8594 21.4806 59.6914 21.9376 59.5742 22.5079C59.4648 23.0704 59.4102 23.7579 59.4102 24.5704V28.297C59.4102 28.9532 59.4453 29.5275 59.5156 30.0197C59.5938 30.5118 59.7031 30.9337 59.8438 31.2853C59.9922 31.6368 60.168 31.9259 60.3711 32.1525C60.582 32.3712 60.8242 32.5353 61.0977 32.6447C61.3711 32.7462 61.6719 32.797 62 32.797C62.4141 32.797 62.7773 32.715 63.0898 32.5509C63.4102 32.3868 63.6797 32.129 63.8984 31.7775C64.1172 31.4181 64.2812 30.9532 64.3906 30.3829C64.5078 29.8048 64.5664 29.1095 64.5664 28.297Z" fill="white"/>
<path d="M18.9922 67.2736L22.3438 57.6251H23.9766L19.7656 69.0001H18.6016L18.9922 67.2736ZM15.8594 57.6251L19.1797 67.2736L19.5938 69.0001H18.4297L14.2266 57.6251H15.8594ZM29.1797 67.2736L32.5312 57.6251H34.1641L29.9531 69.0001H28.7891L29.1797 67.2736ZM26.0469 57.6251L29.3672 67.2736L29.7812 69.0001H28.6172L24.4141 57.6251H26.0469ZM37.3125 57.6251V69.0001H35.8047V57.6251H37.3125ZM44.25 64.5392H41.2109V63.3126H44.25C44.8385 63.3126 45.3151 63.2189 45.6797 63.0314C46.0443 62.8439 46.3099 62.5835 46.4766 62.2501C46.6484 61.9168 46.7344 61.5366 46.7344 61.1095C46.7344 60.7189 46.6484 60.3517 46.4766 60.0079C46.3099 59.6642 46.0443 59.3881 45.6797 59.1798C45.3151 58.9663 44.8385 58.8595 44.25 58.8595H41.5625V69.0001H40.0547V57.6251H44.25C45.1094 57.6251 45.8359 57.7736 46.4297 58.0704C47.0234 58.3673 47.474 58.7788 47.7812 59.3048C48.0885 59.8256 48.2422 60.422 48.2422 61.0939C48.2422 61.823 48.0885 62.4454 47.7812 62.9611C47.474 63.4767 47.0234 63.8699 46.4297 64.1407C45.8359 64.4064 45.1094 64.5392 44.25 64.5392ZM58.3281 58.6329L54.5625 69.0001H53.0234L57.3594 57.6251H58.3516L58.3281 58.6329ZM61.4844 69.0001L57.7109 58.6329L57.6875 57.6251H58.6797L63.0312 69.0001H61.4844ZM61.2891 64.7892V66.0236H54.8984V64.7892H61.2891ZM71.3281 65.3829H72.8281C72.75 66.1017 72.5443 66.7449 72.2109 67.3126C71.8776 67.8803 71.4062 68.3309 70.7969 68.6642C70.1875 68.9923 69.4271 69.1564 68.5156 69.1564C67.849 69.1564 67.2422 69.0314 66.6953 68.7814C66.1536 68.5314 65.6875 68.1772 65.2969 67.7189C64.9062 67.2553 64.6042 66.7006 64.3906 66.0548C64.1823 65.4038 64.0781 64.6798 64.0781 63.8829V62.7501C64.0781 61.9532 64.1823 61.2319 64.3906 60.5861C64.6042 59.935 64.9089 59.3777 65.3047 58.9142C65.7057 58.4506 66.1875 58.0939 66.75 57.8439C67.3125 57.5939 67.9453 57.4689 68.6484 57.4689C69.5078 57.4689 70.2344 57.6303 70.8281 57.9532C71.4219 58.2762 71.8828 58.7241 72.2109 59.297C72.5443 59.8647 72.75 60.5236 72.8281 61.2736H71.3281C71.2552 60.7423 71.1198 60.2866 70.9219 59.9064C70.724 59.521 70.4427 59.2241 70.0781 59.0157C69.7135 58.8074 69.237 58.7032 68.6484 58.7032C68.1432 58.7032 67.6979 58.7996 67.3125 58.9923C66.9323 59.185 66.612 59.4585 66.3516 59.8126C66.0964 60.1668 65.9036 60.5913 65.7734 61.0861C65.6432 61.5809 65.5781 62.1303 65.5781 62.7345V63.8829C65.5781 64.4402 65.6354 64.9637 65.75 65.4532C65.8698 65.9428 66.0495 66.3725 66.2891 66.7423C66.5286 67.1121 66.8333 67.4038 67.2031 67.6173C67.5729 67.8256 68.0104 67.9298 68.5156 67.9298C69.1562 67.9298 69.6667 67.8282 70.0469 67.6251C70.4271 67.422 70.7135 67.1303 70.9062 66.7501C71.1042 66.3699 71.2448 65.9142 71.3281 65.3829ZM81.75 65.3829H83.25C83.1719 66.1017 82.9661 66.7449 82.6328 67.3126C82.2995 67.8803 81.8281 68.3309 81.2188 68.6642C80.6094 68.9923 79.849 69.1564 78.9375 69.1564C78.2708 69.1564 77.6641 69.0314 77.1172 68.7814C76.5755 68.5314 76.1094 68.1772 75.7188 67.7189C75.3281 67.2553 75.026 66.7006 74.8125 66.0548C74.6042 65.4038 74.5 64.6798 74.5 63.8829V62.7501C74.5 61.9532 74.6042 61.2319 74.8125 60.5861C75.026 59.935 75.3307 59.3777 75.7266 58.9142C76.1276 58.4506 76.6094 58.0939 77.1719 57.8439C77.7344 57.5939 78.3672 57.4689 79.0703 57.4689C79.9297 57.4689 80.6562 57.6303 81.25 57.9532C81.8438 58.2762 82.3047 58.7241 82.6328 59.297C82.9661 59.8647 83.1719 60.5236 83.25 61.2736H81.75C81.6771 60.7423 81.5417 60.2866 81.3438 59.9064C81.1458 59.521 80.8646 59.2241 80.5 59.0157C80.1354 58.8074 79.6589 58.7032 79.0703 58.7032C78.5651 58.7032 78.1198 58.7996 77.7344 58.9923C77.3542 59.185 77.0339 59.4585 76.7734 59.8126C76.5182 60.1668 76.3255 60.5913 76.1953 61.0861C76.0651 61.5809 76 62.1303 76 62.7345V63.8829C76 64.4402 76.0573 64.9637 76.1719 65.4532C76.2917 65.9428 76.4714 66.3725 76.7109 66.7423C76.9505 67.1121 77.2552 67.4038 77.625 67.6173C77.9948 67.8256 78.4323 67.9298 78.9375 67.9298C79.5781 67.9298 80.0885 67.8282 80.4688 67.6251C80.849 67.422 81.1354 67.1303 81.3281 66.7501C81.526 66.3699 81.6667 65.9142 81.75 65.3829ZM92.5312 67.7736V69.0001H86.5078V67.7736H92.5312ZM86.8125 57.6251V69.0001H85.3047V57.6251H86.8125ZM91.7344 62.5157V63.7423H86.5078V62.5157H91.7344ZM92.4531 57.6251V58.8595H86.5078V57.6251H92.4531ZM100.461 66.1251C100.461 65.8595 100.419 65.6251 100.336 65.422C100.258 65.2137 100.117 65.0262 99.9141 64.8595C99.7161 64.6928 99.4401 64.534 99.0859 64.3829C98.737 64.2319 98.2943 64.0782 97.7578 63.922C97.1953 63.7553 96.6875 63.5704 96.2344 63.3673C95.7812 63.159 95.3932 62.922 95.0703 62.6564C94.7474 62.3907 94.5 62.0861 94.3281 61.7423C94.1562 61.3986 94.0703 61.0053 94.0703 60.5626C94.0703 60.1199 94.1615 59.7111 94.3438 59.3361C94.526 58.9611 94.7865 58.6355 95.125 58.3595C95.4688 58.0782 95.8776 57.8595 96.3516 57.7032C96.8255 57.547 97.3542 57.4689 97.9375 57.4689C98.7917 57.4689 99.5156 57.6329 100.109 57.9611C100.708 58.284 101.164 58.7085 101.477 59.2345C101.789 59.7553 101.945 60.3126 101.945 60.9064H100.445C100.445 60.4793 100.354 60.1017 100.172 59.7736C99.9896 59.4402 99.7135 59.1798 99.3438 58.9923C98.974 58.7996 98.5052 58.7032 97.9375 58.7032C97.401 58.7032 96.9583 58.784 96.6094 58.9454C96.2604 59.1069 96 59.3256 95.8281 59.6017C95.6615 59.8777 95.5781 60.1928 95.5781 60.547C95.5781 60.7866 95.6276 61.0053 95.7266 61.2032C95.8307 61.396 95.9896 61.5756 96.2031 61.7423C96.4219 61.909 96.6979 62.0626 97.0312 62.2032C97.3698 62.3439 97.7734 62.4793 98.2422 62.6095C98.888 62.7918 99.4453 62.9949 99.9141 63.2189C100.383 63.4428 100.768 63.6954 101.07 63.9767C101.378 64.2527 101.604 64.5678 101.75 64.922C101.901 65.271 101.977 65.6668 101.977 66.1095C101.977 66.573 101.883 66.9923 101.695 67.3673C101.508 67.7423 101.24 68.0626 100.891 68.3282C100.542 68.5939 100.122 68.7996 99.6328 68.9454C99.1484 69.0861 98.6068 69.1564 98.0078 69.1564C97.4818 69.1564 96.9635 69.0835 96.4531 68.9376C95.9479 68.7918 95.487 68.573 95.0703 68.2814C94.6589 67.9897 94.3281 67.6303 94.0781 67.2032C93.8333 66.771 93.7109 66.271 93.7109 65.7032H95.2109C95.2109 66.0939 95.2865 66.4298 95.4375 66.7111C95.5885 66.9871 95.7943 67.2163 96.0547 67.3986C96.3203 67.5809 96.6198 67.7163 96.9531 67.8048C97.2917 67.8881 97.6432 67.9298 98.0078 67.9298C98.5339 67.9298 98.9792 67.8569 99.3438 67.7111C99.7083 67.5652 99.9844 67.3569 100.172 67.0861C100.365 66.8152 100.461 66.4949 100.461 66.1251ZM109.961 66.1251C109.961 65.8595 109.919 65.6251 109.836 65.422C109.758 65.2137 109.617 65.0262 109.414 64.8595C109.216 64.6928 108.94 64.534 108.586 64.3829C108.237 64.2319 107.794 64.0782 107.258 63.922C106.695 63.7553 106.188 63.5704 105.734 63.3673C105.281 63.159 104.893 62.922 104.57 62.6564C104.247 62.3907 104 62.0861 103.828 61.7423C103.656 61.3986 103.57 61.0053 103.57 60.5626C103.57 60.1199 103.661 59.7111 103.844 59.3361C104.026 58.9611 104.286 58.6355 104.625 58.3595C104.969 58.0782 105.378 57.8595 105.852 57.7032C106.326 57.547 106.854 57.4689 107.438 57.4689C108.292 57.4689 109.016 57.6329 109.609 57.9611C110.208 58.284 110.664 58.7085 110.977 59.2345C111.289 59.7553 111.445 60.3126 111.445 60.9064H109.945C109.945 60.4793 109.854 60.1017 109.672 59.7736C109.49 59.4402 109.214 59.1798 108.844 58.9923C108.474 58.7996 108.005 58.7032 107.438 58.7032C106.901 58.7032 106.458 58.784 106.109 58.9454C105.76 59.1069 105.5 59.3256 105.328 59.6017C105.161 59.8777 105.078 60.1928 105.078 60.547C105.078 60.7866 105.128 61.0053 105.227 61.2032C105.331 61.396 105.49 61.5756 105.703 61.7423C105.922 61.909 106.198 62.0626 106.531 62.2032C106.87 62.3439 107.273 62.4793 107.742 62.6095C108.388 62.7918 108.945 62.9949 109.414 63.2189C109.883 63.4428 110.268 63.6954 110.57 63.9767C110.878 64.2527 111.104 64.5678 111.25 64.922C111.401 65.271 111.477 65.6668 111.477 66.1095C111.477 66.573 111.383 66.9923 111.195 67.3673C111.008 67.7423 110.74 68.0626 110.391 68.3282C110.042 68.5939 109.622 68.7996 109.133 68.9454C108.648 69.0861 108.107 69.1564 107.508 69.1564C106.982 69.1564 106.464 69.0835 105.953 68.9376C105.448 68.7918 104.987 68.573 104.57 68.2814C104.159 67.9897 103.828 67.6303 103.578 67.2032C103.333 66.771 103.211 66.271 103.211 65.7032H104.711C104.711 66.0939 104.786 66.4298 104.938 66.7111C105.089 66.9871 105.294 67.2163 105.555 67.3986C105.82 67.5809 106.12 67.7163 106.453 67.8048C106.792 67.8881 107.143 67.9298 107.508 67.9298C108.034 67.9298 108.479 67.8569 108.844 67.7111C109.208 67.5652 109.484 67.3569 109.672 67.0861C109.865 66.8152 109.961 66.4949 109.961 66.1251Z" fill="#FAFAFA"/>
<path d="M21.3486 89.9611V91.0001H14.834V90.0909L18.0947 86.4611C18.4958 86.0144 18.8057 85.6362 19.0244 85.3263C19.2477 85.0118 19.4027 84.7316 19.4893 84.4855C19.5804 84.2348 19.626 83.9796 19.626 83.7198C19.626 83.3917 19.5576 83.0955 19.4209 82.8312C19.2887 82.5623 19.0928 82.3481 18.833 82.1886C18.5732 82.0291 18.2588 81.9493 17.8896 81.9493C17.4476 81.9493 17.0785 82.0359 16.7822 82.2091C16.4906 82.3777 16.2718 82.6147 16.126 82.92C15.9801 83.2254 15.9072 83.5763 15.9072 83.9728H14.6426C14.6426 83.4122 14.7656 82.8995 15.0117 82.4347C15.2578 81.9698 15.6224 81.6007 16.1055 81.3273C16.5885 81.0493 17.1833 80.9103 17.8896 80.9103C18.5186 80.9103 19.0563 81.0219 19.5029 81.2452C19.9495 81.464 20.2913 81.7739 20.5283 82.1749C20.7699 82.5714 20.8906 83.0363 20.8906 83.5695C20.8906 83.8611 20.8405 84.1573 20.7402 84.4581C20.6445 84.7544 20.5101 85.0506 20.3369 85.3468C20.1683 85.643 19.9701 85.9347 19.7422 86.2218C19.5189 86.5089 19.2796 86.7915 19.0244 87.0695L16.3584 89.9611H21.3486ZM28.9502 85.2306V86.7482C28.9502 87.5639 28.8773 88.2521 28.7314 88.8126C28.5856 89.3732 28.376 89.8243 28.1025 90.1661C27.8291 90.5079 27.4987 90.7563 27.1113 90.9113C26.7285 91.0616 26.2956 91.1368 25.8125 91.1368C25.4297 91.1368 25.0765 91.089 24.7529 90.9933C24.4294 90.8976 24.1377 90.7449 23.8779 90.5353C23.6227 90.3211 23.404 90.0431 23.2217 89.7013C23.0394 89.3595 22.9004 88.9448 22.8047 88.4572C22.709 87.9695 22.6611 87.3999 22.6611 86.7482V85.2306C22.6611 84.4148 22.734 83.7312 22.8799 83.1798C23.0303 82.6284 23.2422 82.1863 23.5156 81.8536C23.7891 81.5164 24.1172 81.2749 24.5 81.129C24.8874 80.9832 25.3203 80.9103 25.7988 80.9103C26.1862 80.9103 26.5417 80.9581 26.8652 81.0538C27.1934 81.145 27.485 81.2931 27.7402 81.4982C27.9954 81.6987 28.2119 81.9676 28.3896 82.3048C28.5719 82.6375 28.7109 83.0454 28.8066 83.5284C28.9023 84.0115 28.9502 84.5789 28.9502 85.2306ZM27.6787 86.9532V85.0187C27.6787 84.5721 27.6514 84.1801 27.5967 83.8429C27.5465 83.5011 27.4714 83.2094 27.3711 82.9679C27.2708 82.7264 27.1432 82.5304 26.9883 82.38C26.8379 82.2296 26.6624 82.1202 26.4619 82.0519C26.266 81.979 26.0449 81.9425 25.7988 81.9425C25.498 81.9425 25.2314 81.9995 24.999 82.1134C24.7666 82.2228 24.5706 82.3982 24.4111 82.6398C24.2562 82.8813 24.1377 83.198 24.0557 83.59C23.9736 83.9819 23.9326 84.4581 23.9326 85.0187V86.9532C23.9326 87.3999 23.9577 87.7941 24.0078 88.1359C24.0625 88.4777 24.1423 88.7739 24.2471 89.0245C24.3519 89.2706 24.4795 89.4734 24.6299 89.6329C24.7803 89.7924 24.9535 89.9109 25.1494 89.9884C25.3499 90.0613 25.571 90.0978 25.8125 90.0978C26.1224 90.0978 26.3936 90.0385 26.626 89.92C26.8584 89.8016 27.0521 89.617 27.207 89.3663C27.3665 89.1111 27.485 88.7853 27.5625 88.3888C27.64 87.9878 27.6787 87.5092 27.6787 86.9532ZM35.1162 81.047L30.9668 91.8546H29.8799L34.0361 81.047H35.1162ZM37.96 86.2628L36.9482 86.0031L37.4473 81.047H42.5537V82.2159H38.5205L38.2197 84.923C38.402 84.8182 38.6322 84.7202 38.9102 84.629C39.1927 84.5379 39.5163 84.4923 39.8809 84.4923C40.3411 84.4923 40.7536 84.5721 41.1182 84.7316C41.4827 84.8865 41.7926 85.1098 42.0479 85.4015C42.3076 85.6932 42.5059 86.0441 42.6426 86.4542C42.7793 86.8644 42.8477 87.3224 42.8477 87.8282C42.8477 88.3068 42.7816 88.7465 42.6494 89.1476C42.5218 89.5486 42.3281 89.8995 42.0684 90.2003C41.8086 90.4965 41.4805 90.7267 41.084 90.8907C40.6921 91.0548 40.2295 91.1368 39.6963 91.1368C39.2952 91.1368 38.9147 91.0822 38.5547 90.9728C38.1992 90.8588 37.8802 90.6879 37.5977 90.4601C37.3197 90.2277 37.0918 89.9406 36.9141 89.5988C36.7409 89.2524 36.6315 88.8468 36.5859 88.382H37.7891C37.8438 88.7557 37.9531 89.0701 38.1172 89.3253C38.2812 89.5805 38.4954 89.7742 38.7598 89.9064C39.0286 90.034 39.3408 90.0978 39.6963 90.0978C39.9971 90.0978 40.2637 90.0454 40.4961 89.9406C40.7285 89.8357 40.9245 89.6853 41.084 89.4894C41.2435 89.2934 41.3643 89.0564 41.4463 88.7784C41.5329 88.5004 41.5762 88.1883 41.5762 87.8419C41.5762 87.5275 41.5329 87.2358 41.4463 86.9669C41.3597 86.698 41.2298 86.4633 41.0566 86.2628C40.888 86.0623 40.6807 85.9073 40.4346 85.798C40.1885 85.684 39.9059 85.6271 39.5869 85.6271C39.1631 85.6271 38.8418 85.684 38.623 85.798C38.4089 85.9119 38.1878 86.0669 37.96 86.2628ZM50.7568 89.9611V91.0001H44.2422V90.0909L47.5029 86.4611C47.904 86.0144 48.2139 85.6362 48.4326 85.3263C48.6559 85.0118 48.8109 84.7316 48.8975 84.4855C48.9886 84.2348 49.0342 83.9796 49.0342 83.7198C49.0342 83.3917 48.9658 83.0955 48.8291 82.8312C48.6969 82.5623 48.501 82.3481 48.2412 82.1886C47.9814 82.0291 47.667 81.9493 47.2979 81.9493C46.8558 81.9493 46.4867 82.0359 46.1904 82.2091C45.8988 82.3777 45.68 82.6147 45.5342 82.92C45.3883 83.2254 45.3154 83.5763 45.3154 83.9728H44.0508C44.0508 83.4122 44.1738 82.8995 44.4199 82.4347C44.666 81.9698 45.0306 81.6007 45.5137 81.3273C45.9967 81.0493 46.5915 80.9103 47.2979 80.9103C47.9268 80.9103 48.4645 81.0219 48.9111 81.2452C49.3577 81.464 49.6995 81.7739 49.9365 82.1749C50.1781 82.5714 50.2988 83.0363 50.2988 83.5695C50.2988 83.8611 50.2487 84.1573 50.1484 84.4581C50.0527 84.7544 49.9183 85.0506 49.7451 85.3468C49.5765 85.643 49.3783 85.9347 49.1504 86.2218C48.9271 86.5089 48.6878 86.7915 48.4326 87.0695L45.7666 89.9611H50.7568Z" fill="#D9D9D9"/>
</svg>
