<svg width="160" height="112" viewBox="0 0 160 112" fill="none" xmlns="http://www.w3.org/2000/svg">
<path d="M13 0.500122C6.09644 0.500122 0.5 6.09656 0.5 13.0001V99.0001C0.5 105.904 6.09644 111.5 13 111.5H147C153.904 111.5 159.5 105.904 159.5 99.0001V13.0001C159.5 6.09656 153.904 0.500122 147 0.500122H13Z" fill="#12464E"/>
<path d="M13 0.500122C6.09644 0.500122 0.5 6.09656 0.5 13.0001V99.0001C0.5 105.904 6.09644 111.5 13 111.5H147C153.904 111.5 159.5 105.904 159.5 99.0001V13.0001C159.5 6.09656 153.904 0.500122 147 0.500122H13Z" stroke="#197686"/>
<path d="M17.8516 16.9376V34.0001H14.6289V16.9376H17.8516ZM24.7305 24.3087V26.8517H17.0078V24.3087H24.7305ZM25.6328 16.9376V19.4806H17.0078V16.9376H25.6328ZM30.3789 23.9103V34.0001H27.2852V21.3204H30.2148L30.3789 23.9103ZM34.2344 21.2384L34.1875 24.1212C34.0156 24.09 33.8203 24.0665 33.6016 24.0509C33.3906 24.0353 33.1914 24.0275 33.0039 24.0275C32.5273 24.0275 32.1094 24.0939 31.75 24.2267C31.3906 24.3517 31.0898 24.5353 30.8477 24.7775C30.6133 25.0197 30.4336 25.3165 30.3086 25.6681C30.1836 26.0118 30.1133 26.4025 30.0977 26.84L29.4297 26.7579C29.4297 25.9532 29.5117 25.2072 29.6758 24.5197C29.8398 23.8322 30.0781 23.2306 30.3906 22.715C30.7031 22.1993 31.0938 21.8009 31.5625 21.5197C32.0391 21.2306 32.5859 21.0861 33.2031 21.0861C33.375 21.0861 33.5586 21.1017 33.7539 21.1329C33.957 21.1564 34.1172 21.1915 34.2344 21.2384ZM41.3945 34.2345C40.4336 34.2345 39.5703 34.0782 38.8047 33.7657C38.0391 33.4532 37.3867 33.0197 36.8477 32.465C36.3164 31.9025 35.9062 31.2501 35.6172 30.5079C35.3359 29.7579 35.1953 28.9532 35.1953 28.0939V27.6251C35.1953 26.6486 35.3359 25.7618 35.6172 24.965C35.8984 24.1603 36.2969 23.4689 36.8125 22.8907C37.3281 22.3126 37.9453 21.8673 38.6641 21.5548C39.3828 21.2423 40.1758 21.0861 41.043 21.0861C41.9414 21.0861 42.7344 21.2384 43.4219 21.5431C44.1094 21.84 44.6836 22.2618 45.1445 22.8087C45.6055 23.3556 45.9531 24.0118 46.1875 24.7775C46.4219 25.5353 46.5391 26.3751 46.5391 27.297V28.5978H36.6016V26.465H43.4922V26.2306C43.4766 25.7384 43.3828 25.2892 43.2109 24.8829C43.0391 24.4689 42.7734 24.1407 42.4141 23.8986C42.0547 23.6486 41.5898 23.5236 41.0195 23.5236C40.5586 23.5236 40.1562 23.6251 39.8125 23.8282C39.4766 24.0236 39.1953 24.3048 38.9688 24.672C38.75 25.0314 38.5859 25.4611 38.4766 25.9611C38.3672 26.4611 38.3125 27.0157 38.3125 27.6251V28.0939C38.3125 28.6251 38.3828 29.1173 38.5234 29.5704C38.6719 30.0236 38.8867 30.4181 39.168 30.754C39.457 31.0822 39.8008 31.34 40.1992 31.5275C40.6055 31.7072 41.0664 31.797 41.582 31.797C42.2305 31.797 42.8164 31.672 43.3398 31.422C43.8711 31.1642 44.332 30.7853 44.7227 30.2853L46.2812 31.9025C46.0156 32.2931 45.6562 32.6681 45.2031 33.0275C44.7578 33.3868 44.2188 33.6798 43.5859 33.9064C42.9531 34.1251 42.2227 34.2345 41.3945 34.2345ZM54.3086 34.2345C53.3477 34.2345 52.4844 34.0782 51.7188 33.7657C50.9531 33.4532 50.3008 33.0197 49.7617 32.465C49.2305 31.9025 48.8203 31.2501 48.5312 30.5079C48.25 29.7579 48.1094 28.9532 48.1094 28.0939V27.6251C48.1094 26.6486 48.25 25.7618 48.5312 24.965C48.8125 24.1603 49.2109 23.4689 49.7266 22.8907C50.2422 22.3126 50.8594 21.8673 51.5781 21.5548C52.2969 21.2423 53.0898 21.0861 53.957 21.0861C54.8555 21.0861 55.6484 21.2384 56.3359 21.5431C57.0234 21.84 57.5977 22.2618 58.0586 22.8087C58.5195 23.3556 58.8672 24.0118 59.1016 24.7775C59.3359 25.5353 59.4531 26.3751 59.4531 27.297V28.5978H49.5156V26.465H56.4062V26.2306C56.3906 25.7384 56.2969 25.2892 56.125 24.8829C55.9531 24.4689 55.6875 24.1407 55.3281 23.8986C54.9688 23.6486 54.5039 23.5236 53.9336 23.5236C53.4727 23.5236 53.0703 23.6251 52.7266 23.8282C52.3906 24.0236 52.1094 24.3048 51.8828 24.672C51.6641 25.0314 51.5 25.4611 51.3906 25.9611C51.2812 26.4611 51.2266 27.0157 51.2266 27.6251V28.0939C51.2266 28.6251 51.2969 29.1173 51.4375 29.5704C51.5859 30.0236 51.8008 30.4181 52.082 30.754C52.3711 31.0822 52.7148 31.34 53.1133 31.5275C53.5195 31.7072 53.9805 31.797 54.4961 31.797C55.1445 31.797 55.7305 31.672 56.2539 31.422C56.7852 31.1642 57.2461 30.7853 57.6367 30.2853L59.1953 31.9025C58.9297 32.2931 58.5703 32.6681 58.1172 33.0275C57.6719 33.3868 57.1328 33.6798 56.5 33.9064C55.8672 34.1251 55.1367 34.2345 54.3086 34.2345Z" fill="white"/>
<path d="M14.3203 56.6251H18.0859C18.9401 56.6251 19.6615 56.7553 20.25 57.0157C20.8438 57.2762 21.2943 57.6616 21.6016 58.172C21.9141 58.6772 22.0703 59.2996 22.0703 60.0392C22.0703 60.56 21.9635 61.0366 21.75 61.4689C21.5417 61.896 21.2396 62.2605 20.8438 62.5626C20.4531 62.8595 19.9844 63.0809 19.4375 63.2267L19.0156 63.3907H15.4766L15.4609 62.1642H18.1328C18.6745 62.1642 19.125 62.0704 19.4844 61.8829C19.8438 61.6902 20.1146 61.4324 20.2969 61.1095C20.4792 60.7866 20.5703 60.4298 20.5703 60.0392C20.5703 59.6017 20.4844 59.2189 20.3125 58.8907C20.1406 58.5626 19.8698 58.31 19.5 58.1329C19.1354 57.9506 18.6641 57.8595 18.0859 57.8595H15.8281V68.0001H14.3203V56.6251ZM20.9688 68.0001L18.2031 62.8439L19.7734 62.8361L22.5781 67.9064V68.0001H20.9688ZM31.4062 66.7736V68.0001H25.3828V66.7736H31.4062ZM25.6875 56.6251V68.0001H24.1797V56.6251H25.6875ZM30.6094 61.5157V62.7423H25.3828V61.5157H30.6094ZM31.3281 56.6251V57.8595H25.3828V56.6251H31.3281ZM41.6797 62.3361V66.5001C41.5391 66.7085 41.3151 66.9428 41.0078 67.2032C40.7005 67.4585 40.276 67.6824 39.7344 67.8751C39.1979 68.0626 38.5052 68.1564 37.6562 68.1564C36.9635 68.1564 36.3255 68.0366 35.7422 67.797C35.1641 67.5522 34.6615 67.198 34.2344 66.7345C33.8125 66.2657 33.4844 65.698 33.25 65.0314C33.0208 64.3595 32.9062 63.5991 32.9062 62.7501V61.8673C32.9062 61.0184 33.0052 60.2605 33.2031 59.5939C33.4062 58.9272 33.7031 58.3621 34.0938 57.8986C34.4844 57.4298 34.9635 57.0756 35.5312 56.8361C36.099 56.5913 36.75 56.4689 37.4844 56.4689C38.3542 56.4689 39.0807 56.6199 39.6641 56.922C40.2526 57.2189 40.7109 57.6303 41.0391 58.1564C41.3724 58.6824 41.5859 59.2814 41.6797 59.9532H40.1719C40.1042 59.5418 39.9688 59.1668 39.7656 58.8282C39.5677 58.4897 39.2839 58.2189 38.9141 58.0157C38.5443 57.8074 38.0677 57.7032 37.4844 57.7032C36.9583 57.7032 36.5026 57.7996 36.1172 57.9923C35.7318 58.185 35.4141 58.4611 35.1641 58.8204C34.9141 59.1798 34.7266 59.6147 34.6016 60.1251C34.4818 60.6355 34.4219 61.2111 34.4219 61.8517V62.7501C34.4219 63.4064 34.4974 63.9923 34.6484 64.5079C34.8047 65.0236 35.026 65.4637 35.3125 65.8282C35.599 66.1876 35.9401 66.4611 36.3359 66.6486C36.737 66.8361 37.1797 66.9298 37.6641 66.9298C38.2005 66.9298 38.6354 66.8855 38.9688 66.797C39.3021 66.7032 39.5625 66.5939 39.75 66.4689C39.9375 66.3387 40.0807 66.2163 40.1797 66.1017V63.5548H37.5469V62.3361H41.6797ZM50.6875 56.6251H52.1875V64.3204C52.1875 65.1746 51.9974 65.8855 51.6172 66.4532C51.237 67.021 50.7318 67.448 50.1016 67.7345C49.4766 68.0157 48.7969 68.1564 48.0625 68.1564C47.2917 68.1564 46.5938 68.0157 45.9688 67.7345C45.349 67.448 44.8568 67.021 44.4922 66.4532C44.1328 65.8855 43.9531 65.1746 43.9531 64.3204V56.6251H45.4453V64.3204C45.4453 64.9142 45.5547 65.4038 45.7734 65.7892C45.9922 66.1746 46.2969 66.4611 46.6875 66.6486C47.0833 66.8361 47.5417 66.9298 48.0625 66.9298C48.5885 66.9298 49.0469 66.8361 49.4375 66.6486C49.8333 66.4611 50.1406 66.1746 50.3594 65.7892C50.5781 65.4038 50.6875 64.9142 50.6875 64.3204V56.6251ZM61.4531 66.7736V68.0001H55.7656V66.7736H61.4531ZM56.0625 56.6251V68.0001H54.5547V56.6251H56.0625ZM67.5469 57.6329L63.7812 68.0001H62.2422L66.5781 56.6251H67.5703L67.5469 57.6329ZM70.7031 68.0001L66.9297 57.6329L66.9062 56.6251H67.8984L72.25 68.0001H70.7031ZM70.5078 63.7892V65.0236H64.1172V63.7892H70.5078ZM73.7734 56.6251H77.5391C78.3932 56.6251 79.1146 56.7553 79.7031 57.0157C80.2969 57.2762 80.7474 57.6616 81.0547 58.172C81.3672 58.6772 81.5234 59.2996 81.5234 60.0392C81.5234 60.56 81.4167 61.0366 81.2031 61.4689C80.9948 61.896 80.6927 62.2605 80.2969 62.5626C79.9062 62.8595 79.4375 63.0809 78.8906 63.2267L78.4688 63.3907H74.9297L74.9141 62.1642H77.5859C78.1276 62.1642 78.5781 62.0704 78.9375 61.8829C79.2969 61.6902 79.5677 61.4324 79.75 61.1095C79.9323 60.7866 80.0234 60.4298 80.0234 60.0392C80.0234 59.6017 79.9375 59.2189 79.7656 58.8907C79.5938 58.5626 79.3229 58.31 78.9531 58.1329C78.5885 57.9506 78.1172 57.8595 77.5391 57.8595H75.2812V68.0001H73.7734V56.6251ZM80.4219 68.0001L77.6562 62.8439L79.2266 62.8361L82.0312 67.9064V68.0001H80.4219ZM91.8125 57.6329L88.0469 68.0001H86.5078L90.8438 56.6251H91.8359L91.8125 57.6329ZM94.9688 68.0001L91.1953 57.6329L91.1719 56.6251H92.1641L96.5156 68.0001H94.9688ZM94.7734 63.7892V65.0236H88.3828V63.7892H94.7734ZM104.812 64.3829H106.312C106.234 65.1017 106.029 65.7449 105.695 66.3126C105.362 66.8803 104.891 67.3309 104.281 67.6642C103.672 67.9923 102.911 68.1564 102 68.1564C101.333 68.1564 100.727 68.0314 100.18 67.7814C99.638 67.5314 99.1719 67.1772 98.7812 66.7189C98.3906 66.2553 98.0885 65.7006 97.875 65.0548C97.6667 64.4038 97.5625 63.6798 97.5625 62.8829V61.7501C97.5625 60.9532 97.6667 60.2319 97.875 59.5861C98.0885 58.935 98.3932 58.3777 98.7891 57.9142C99.1901 57.4506 99.6719 57.0939 100.234 56.8439C100.797 56.5939 101.43 56.4689 102.133 56.4689C102.992 56.4689 103.719 56.6303 104.312 56.9532C104.906 57.2762 105.367 57.7241 105.695 58.297C106.029 58.8647 106.234 59.5236 106.312 60.2736H104.812C104.74 59.7423 104.604 59.2866 104.406 58.9064C104.208 58.521 103.927 58.2241 103.562 58.0157C103.198 57.8074 102.721 57.7032 102.133 57.7032C101.628 57.7032 101.182 57.7996 100.797 57.9923C100.417 58.185 100.096 58.4585 99.8359 58.8126C99.5807 59.1668 99.388 59.5913 99.2578 60.0861C99.1276 60.5809 99.0625 61.1303 99.0625 61.7345V62.8829C99.0625 63.4402 99.1198 63.9637 99.2344 64.4532C99.3542 64.9428 99.5339 65.3725 99.7734 65.7423C100.013 66.1121 100.318 66.4038 100.688 66.6173C101.057 66.8256 101.495 66.9298 102 66.9298C102.641 66.9298 103.151 66.8282 103.531 66.6251C103.911 66.422 104.198 66.1303 104.391 65.7501C104.589 65.3699 104.729 64.9142 104.812 64.3829ZM115.234 64.3829H116.734C116.656 65.1017 116.451 65.7449 116.117 66.3126C115.784 66.8803 115.312 67.3309 114.703 67.6642C114.094 67.9923 113.333 68.1564 112.422 68.1564C111.755 68.1564 111.148 68.0314 110.602 67.7814C110.06 67.5314 109.594 67.1772 109.203 66.7189C108.812 66.2553 108.51 65.7006 108.297 65.0548C108.089 64.4038 107.984 63.6798 107.984 62.8829V61.7501C107.984 60.9532 108.089 60.2319 108.297 59.5861C108.51 58.935 108.815 58.3777 109.211 57.9142C109.612 57.4506 110.094 57.0939 110.656 56.8439C111.219 56.5939 111.852 56.4689 112.555 56.4689C113.414 56.4689 114.141 56.6303 114.734 56.9532C115.328 57.2762 115.789 57.7241 116.117 58.297C116.451 58.8647 116.656 59.5236 116.734 60.2736H115.234C115.161 59.7423 115.026 59.2866 114.828 58.9064C114.63 58.521 114.349 58.2241 113.984 58.0157C113.62 57.8074 113.143 57.7032 112.555 57.7032C112.049 57.7032 111.604 57.7996 111.219 57.9923C110.839 58.185 110.518 58.4585 110.258 58.8126C110.003 59.1668 109.81 59.5913 109.68 60.0861C109.549 60.5809 109.484 61.1303 109.484 61.7345V62.8829C109.484 63.4402 109.542 63.9637 109.656 64.4532C109.776 64.9428 109.956 65.3725 110.195 65.7423C110.435 66.1121 110.74 66.4038 111.109 66.6173C111.479 66.8256 111.917 66.9298 112.422 66.9298C113.062 66.9298 113.573 66.8282 113.953 66.6251C114.333 66.422 114.62 66.1303 114.812 65.7501C115.01 65.3699 115.151 64.9142 115.234 64.3829ZM126.016 66.7736V68.0001H119.992V66.7736H126.016ZM120.297 56.6251V68.0001H118.789V56.6251H120.297ZM125.219 61.5157V62.7423H119.992V61.5157H125.219ZM125.938 56.6251V57.8595H119.992V56.6251H125.938ZM133.945 65.1251C133.945 64.8595 133.904 64.6251 133.82 64.422C133.742 64.2137 133.602 64.0262 133.398 63.8595C133.201 63.6928 132.924 63.534 132.57 63.3829C132.221 63.2319 131.779 63.0782 131.242 62.922C130.68 62.7553 130.172 62.5704 129.719 62.3673C129.266 62.159 128.878 61.922 128.555 61.6564C128.232 61.3907 127.984 61.0861 127.812 60.7423C127.641 60.3986 127.555 60.0053 127.555 59.5626C127.555 59.1199 127.646 58.7111 127.828 58.3361C128.01 57.9611 128.271 57.6355 128.609 57.3595C128.953 57.0782 129.362 56.8595 129.836 56.7032C130.31 56.547 130.839 56.4689 131.422 56.4689C132.276 56.4689 133 56.6329 133.594 56.9611C134.193 57.284 134.648 57.7085 134.961 58.2345C135.273 58.7553 135.43 59.3126 135.43 59.9064H133.93C133.93 59.4793 133.839 59.1017 133.656 58.7736C133.474 58.4402 133.198 58.1798 132.828 57.9923C132.458 57.7996 131.99 57.7032 131.422 57.7032C130.885 57.7032 130.443 57.784 130.094 57.9454C129.745 58.1069 129.484 58.3256 129.312 58.6017C129.146 58.8777 129.062 59.1928 129.062 59.547C129.062 59.7866 129.112 60.0053 129.211 60.2032C129.315 60.396 129.474 60.5756 129.688 60.7423C129.906 60.909 130.182 61.0626 130.516 61.2032C130.854 61.3439 131.258 61.4793 131.727 61.6095C132.372 61.7918 132.93 61.9949 133.398 62.2189C133.867 62.4428 134.253 62.6954 134.555 62.9767C134.862 63.2527 135.089 63.5678 135.234 63.922C135.385 64.271 135.461 64.6668 135.461 65.1095C135.461 65.573 135.367 65.9923 135.18 66.3673C134.992 66.7423 134.724 67.0626 134.375 67.3282C134.026 67.5939 133.607 67.7996 133.117 67.9454C132.633 68.0861 132.091 68.1564 131.492 68.1564C130.966 68.1564 130.448 68.0835 129.938 67.9376C129.432 67.7918 128.971 67.573 128.555 67.2814C128.143 66.9897 127.812 66.6303 127.562 66.2032C127.318 65.771 127.195 65.271 127.195 64.7032H128.695C128.695 65.0939 128.771 65.4298 128.922 65.7111C129.073 65.9871 129.279 66.2163 129.539 66.3986C129.805 66.5809 130.104 66.7163 130.438 66.8048C130.776 66.8881 131.128 66.9298 131.492 66.9298C132.018 66.9298 132.464 66.8569 132.828 66.7111C133.193 66.5652 133.469 66.3569 133.656 66.0861C133.849 65.8152 133.945 65.4949 133.945 65.1251ZM143.445 65.1251C143.445 64.8595 143.404 64.6251 143.32 64.422C143.242 64.2137 143.102 64.0262 142.898 63.8595C142.701 63.6928 142.424 63.534 142.07 63.3829C141.721 63.2319 141.279 63.0782 140.742 62.922C140.18 62.7553 139.672 62.5704 139.219 62.3673C138.766 62.159 138.378 61.922 138.055 61.6564C137.732 61.3907 137.484 61.0861 137.312 60.7423C137.141 60.3986 137.055 60.0053 137.055 59.5626C137.055 59.1199 137.146 58.7111 137.328 58.3361C137.51 57.9611 137.771 57.6355 138.109 57.3595C138.453 57.0782 138.862 56.8595 139.336 56.7032C139.81 56.547 140.339 56.4689 140.922 56.4689C141.776 56.4689 142.5 56.6329 143.094 56.9611C143.693 57.284 144.148 57.7085 144.461 58.2345C144.773 58.7553 144.93 59.3126 144.93 59.9064H143.43C143.43 59.4793 143.339 59.1017 143.156 58.7736C142.974 58.4402 142.698 58.1798 142.328 57.9923C141.958 57.7996 141.49 57.7032 140.922 57.7032C140.385 57.7032 139.943 57.784 139.594 57.9454C139.245 58.1069 138.984 58.3256 138.812 58.6017C138.646 58.8777 138.562 59.1928 138.562 59.547C138.562 59.7866 138.612 60.0053 138.711 60.2032C138.815 60.396 138.974 60.5756 139.188 60.7423C139.406 60.909 139.682 61.0626 140.016 61.2032C140.354 61.3439 140.758 61.4793 141.227 61.6095C141.872 61.7918 142.43 61.9949 142.898 62.2189C143.367 62.4428 143.753 62.6954 144.055 62.9767C144.362 63.2527 144.589 63.5678 144.734 63.922C144.885 64.271 144.961 64.6668 144.961 65.1095C144.961 65.573 144.867 65.9923 144.68 66.3673C144.492 66.7423 144.224 67.0626 143.875 67.3282C143.526 67.5939 143.107 67.7996 142.617 67.9454C142.133 68.0861 141.591 68.1564 140.992 68.1564C140.466 68.1564 139.948 68.0835 139.438 67.9376C138.932 67.7918 138.471 67.573 138.055 67.2814C137.643 66.9897 137.312 66.6303 137.062 66.2032C136.818 65.771 136.695 65.271 136.695 64.7032H138.195C138.195 65.0939 138.271 65.4298 138.422 65.7111C138.573 65.9871 138.779 66.2163 139.039 66.3986C139.305 66.5809 139.604 66.7163 139.938 66.8048C140.276 66.8881 140.628 66.9298 140.992 66.9298C141.518 66.9298 141.964 66.8569 142.328 66.7111C142.693 66.5652 142.969 66.3569 143.156 66.0861C143.349 65.8152 143.445 65.4949 143.445 65.1251Z" fill="#FAFAFA"/>
<path d="M20.3486 88.9611V90.0001H13.834V89.0909L17.0947 85.4611C17.4958 85.0144 17.8057 84.6362 18.0244 84.3263C18.2477 84.0118 18.4027 83.7316 18.4893 83.4855C18.5804 83.2348 18.626 82.9796 18.626 82.7198C18.626 82.3917 18.5576 82.0955 18.4209 81.8312C18.2887 81.5623 18.0928 81.3481 17.833 81.1886C17.5732 81.0291 17.2588 80.9493 16.8896 80.9493C16.4476 80.9493 16.0785 81.0359 15.7822 81.2091C15.4906 81.3777 15.2718 81.6147 15.126 81.92C14.9801 82.2254 14.9072 82.5763 14.9072 82.9728H13.6426C13.6426 82.4122 13.7656 81.8995 14.0117 81.4347C14.2578 80.9698 14.6224 80.6007 15.1055 80.3273C15.5885 80.0493 16.1833 79.9103 16.8896 79.9103C17.5186 79.9103 18.0563 80.0219 18.5029 80.2452C18.9495 80.464 19.2913 80.7739 19.5283 81.1749C19.7699 81.5714 19.8906 82.0363 19.8906 82.5695C19.8906 82.8611 19.8405 83.1573 19.7402 83.4581C19.6445 83.7544 19.5101 84.0506 19.3369 84.3468C19.1683 84.643 18.9701 84.9347 18.7422 85.2218C18.5189 85.5089 18.2796 85.7915 18.0244 86.0695L15.3584 88.9611H20.3486ZM27.9502 84.2306V85.7482C27.9502 86.5639 27.8773 87.2521 27.7314 87.8126C27.5856 88.3732 27.376 88.8243 27.1025 89.1661C26.8291 89.5079 26.4987 89.7563 26.1113 89.9113C25.7285 90.0616 25.2956 90.1368 24.8125 90.1368C24.4297 90.1368 24.0765 90.089 23.7529 89.9933C23.4294 89.8976 23.1377 89.7449 22.8779 89.5353C22.6227 89.3211 22.404 89.0431 22.2217 88.7013C22.0394 88.3595 21.9004 87.9448 21.8047 87.4572C21.709 86.9695 21.6611 86.3999 21.6611 85.7482V84.2306C21.6611 83.4148 21.734 82.7312 21.8799 82.1798C22.0303 81.6284 22.2422 81.1863 22.5156 80.8536C22.7891 80.5164 23.1172 80.2749 23.5 80.129C23.8874 79.9832 24.3203 79.9103 24.7988 79.9103C25.1862 79.9103 25.5417 79.9581 25.8652 80.0538C26.1934 80.145 26.485 80.2931 26.7402 80.4982C26.9954 80.6987 27.2119 80.9676 27.3896 81.3048C27.5719 81.6375 27.7109 82.0454 27.8066 82.5284C27.9023 83.0115 27.9502 83.5789 27.9502 84.2306ZM26.6787 85.9532V84.0187C26.6787 83.5721 26.6514 83.1801 26.5967 82.8429C26.5465 82.5011 26.4714 82.2094 26.3711 81.9679C26.2708 81.7264 26.1432 81.5304 25.9883 81.38C25.8379 81.2296 25.6624 81.1202 25.4619 81.0519C25.266 80.979 25.0449 80.9425 24.7988 80.9425C24.498 80.9425 24.2314 80.9995 23.999 81.1134C23.7666 81.2228 23.5706 81.3982 23.4111 81.6398C23.2562 81.8813 23.1377 82.198 23.0557 82.59C22.9736 82.9819 22.9326 83.4581 22.9326 84.0187V85.9532C22.9326 86.3999 22.9577 86.7941 23.0078 87.1359C23.0625 87.4777 23.1423 87.7739 23.2471 88.0245C23.3519 88.2706 23.4795 88.4734 23.6299 88.6329C23.7803 88.7924 23.9535 88.9109 24.1494 88.9884C24.3499 89.0613 24.571 89.0978 24.8125 89.0978C25.1224 89.0978 25.3936 89.0385 25.626 88.92C25.8584 88.8016 26.0521 88.617 26.207 88.3663C26.3665 88.1111 26.485 87.7853 26.5625 87.3888C26.64 86.9878 26.6787 86.5092 26.6787 85.9532ZM34.1162 80.047L29.9668 90.8546H28.8799L33.0361 80.047H34.1162ZM36.96 85.2628L35.9482 85.0031L36.4473 80.047H41.5537V81.2159H37.5205L37.2197 83.923C37.402 83.8182 37.6322 83.7202 37.9102 83.629C38.1927 83.5379 38.5163 83.4923 38.8809 83.4923C39.3411 83.4923 39.7536 83.5721 40.1182 83.7316C40.4827 83.8865 40.7926 84.1098 41.0479 84.4015C41.3076 84.6932 41.5059 85.0441 41.6426 85.4542C41.7793 85.8644 41.8477 86.3224 41.8477 86.8282C41.8477 87.3068 41.7816 87.7465 41.6494 88.1476C41.5218 88.5486 41.3281 88.8995 41.0684 89.2003C40.8086 89.4965 40.4805 89.7267 40.084 89.8907C39.6921 90.0548 39.2295 90.1368 38.6963 90.1368C38.2952 90.1368 37.9147 90.0822 37.5547 89.9728C37.1992 89.8588 36.8802 89.6879 36.5977 89.4601C36.3197 89.2277 36.0918 88.9406 35.9141 88.5988C35.7409 88.2524 35.6315 87.8468 35.5859 87.382H36.7891C36.8438 87.7557 36.9531 88.0701 37.1172 88.3253C37.2812 88.5805 37.4954 88.7742 37.7598 88.9064C38.0286 89.034 38.3408 89.0978 38.6963 89.0978C38.9971 89.0978 39.2637 89.0454 39.4961 88.9406C39.7285 88.8357 39.9245 88.6853 40.084 88.4894C40.2435 88.2934 40.3643 88.0564 40.4463 87.7784C40.5329 87.5004 40.5762 87.1883 40.5762 86.8419C40.5762 86.5275 40.5329 86.2358 40.4463 85.9669C40.3597 85.698 40.2298 85.4633 40.0566 85.2628C39.888 85.0623 39.6807 84.9073 39.4346 84.798C39.1885 84.684 38.9059 84.6271 38.5869 84.6271C38.1631 84.6271 37.8418 84.684 37.623 84.798C37.4089 84.9119 37.1878 85.0669 36.96 85.2628ZM49.7568 88.9611V90.0001H43.2422V89.0909L46.5029 85.4611C46.904 85.0144 47.2139 84.6362 47.4326 84.3263C47.6559 84.0118 47.8109 83.7316 47.8975 83.4855C47.9886 83.2348 48.0342 82.9796 48.0342 82.7198C48.0342 82.3917 47.9658 82.0955 47.8291 81.8312C47.6969 81.5623 47.501 81.3481 47.2412 81.1886C46.9814 81.0291 46.667 80.9493 46.2979 80.9493C45.8558 80.9493 45.4867 81.0359 45.1904 81.2091C44.8988 81.3777 44.68 81.6147 44.5342 81.92C44.3883 82.2254 44.3154 82.5763 44.3154 82.9728H43.0508C43.0508 82.4122 43.1738 81.8995 43.4199 81.4347C43.666 80.9698 44.0306 80.6007 44.5137 80.3273C44.9967 80.0493 45.5915 79.9103 46.2979 79.9103C46.9268 79.9103 47.4645 80.0219 47.9111 80.2452C48.3577 80.464 48.6995 80.7739 48.9365 81.1749C49.1781 81.5714 49.2988 82.0363 49.2988 82.5695C49.2988 82.8611 49.2487 83.1573 49.1484 83.4581C49.0527 83.7544 48.9183 84.0506 48.7451 84.3468C48.5765 84.643 48.3783 84.9347 48.1504 85.2218C47.9271 85.5089 47.6878 85.7915 47.4326 86.0695L44.7666 88.9611H49.7568Z" fill="#D9D9D9"/>
</svg>
